<?xml version="1.0" encoding="UTF-8"?>
<svg id="Layer_2" data-name="Layer 2" xmlns="http://www.w3.org/2000/svg" xmlns:xlink="http://www.w3.org/1999/xlink" viewBox="0 0 531.03 319.68">
  <defs>
    <style>
      .cls-1 {
        fill: url(#linear-gradient);
      }

      .cls-1, .cls-2, .cls-3, .cls-4 {
        stroke-width: 0px;
      }

      .cls-2 {
        fill: #1d79bc;
      }

      .cls-3 {
        fill: url(#linear-gradient-2);
      }

      .cls-4 {
        fill: #fff;
      }
    </style>
    <linearGradient id="linear-gradient" x1="0" y1="235.97" x2="340.7" y2="235.97" gradientUnits="userSpaceOnUse">
      <stop offset="0" stop-color="#faf9f9"/>
      <stop offset="1" stop-color="#2584c6" stop-opacity="0"/>
    </linearGradient>
    <linearGradient id="linear-gradient-2" x1="252.64" y1="178.68" x2="613.39" y2="378.76" xlink:href="#linear-gradient"/>
  </defs>
  <g id="Layer_1-2" data-name="Layer 1">
    <g>
      <g>
        <path class="cls-4" d="M92.44,32.44c-.84.4-1.72.75-2.65,1.04-.93.29-1.8.63-2.6,1-.81.37-1.47.84-2,1.42-.53.57-.79,1.32-.79,2.25,0,.65.17,1.21.51,1.7.34.48.81.87,1.39,1.18.59.31,1.28.54,2.07.7.79.15,1.63.23,2.53.23.59,0,1.11,0,1.56-.02.45-.02.88-.03,1.3-.05.42-.02.84-.05,1.28-.12.43-.06.91-.14,1.44-.23v3.07c-1.15.28-2.13.45-2.95.51-.82.06-1.59.09-2.3.09-3.69,0-6.38-.64-8.09-1.93-1.7-1.29-2.56-3-2.56-5.13,0-1.21.27-2.22.81-3.04.54-.82,1.24-1.51,2.09-2.07.85-.56,1.8-1.02,2.86-1.39,1.05-.37,2.09-.73,3.11-1.07l-.33-.23c-1.3-1.05-2.36-2.07-3.18-3.04-.82-.98-1.46-1.88-1.93-2.72-.46-.84-.77-1.61-.93-2.32-.16-.71-.23-1.35-.23-1.91,0-1.15.25-2.15.74-3.02.5-.87,1.17-1.59,2.02-2.18.85-.59,1.87-1.02,3.04-1.3,1.18-.28,2.46-.42,3.86-.42s2.68.13,3.86.4c1.18.26,2.2.67,3.07,1.23.87.56,1.54,1.26,2.02,2.11.48.85.72,1.87.72,3.04s-.44,2.69-1.32,4.44c-.88,1.75-2.53,3.65-4.95,5.69h8.88c.62,0,1.08.09,1.39.26.31.17.46.58.46,1.23,0,.77-.15,1.26-.44,1.46-.29.2-.77.3-1.42.3h-5.62c-1.02,0-1.89-.04-2.6-.12-.71-.08-1.32-.18-1.84-.3-.51-.12-.95-.26-1.3-.39-.36-.14-.69-.26-1-.35ZM92.53,16.59c-.77,0-1.51.09-2.21.26-.7.17-1.3.43-1.81.79-.51.36-.91.81-1.21,1.37-.29.56-.44,1.22-.44,2,0,.34.05.77.14,1.28.09.51.33,1.1.72,1.77.39.67.96,1.43,1.72,2.3.76.87,1.8,1.83,3.14,2.88,1.21-.93,2.18-1.82,2.93-2.67.74-.85,1.32-1.64,1.72-2.37.4-.73.67-1.38.79-1.95.12-.57.19-1.05.19-1.42,0-.84-.18-1.53-.53-2.07-.36-.54-.81-.98-1.37-1.3s-1.17-.55-1.84-.67c-.67-.12-1.31-.19-1.93-.19Z"/>
        <path class="cls-4" d="M104.8,33.6c-.62,0-1.08-.11-1.39-.33-.31-.22-.46-.65-.46-1.3,0-.77.15-1.24.44-1.39.29-.15.77-.23,1.42-.23h6.92c.62,0,1.08.09,1.39.26.31.17.46.58.46,1.23,0,.77-.15,1.26-.44,1.46-.29.2-.77.3-1.42.3h-6.92Z"/>
        <path class="cls-4" d="M111.68,33.6c-.62,0-1.08-.11-1.39-.33-.31-.22-.46-.65-.46-1.3,0-.77.15-1.24.44-1.39.29-.15.77-.23,1.42-.23h6.92c.62,0,1.08.09,1.39.26.31.17.46.58.46,1.23,0,.77-.15,1.26-.44,1.46-.29.2-.77.3-1.42.3h-6.92Z"/>
        <path class="cls-4" d="M118.55,33.6c-.62,0-1.08-.11-1.39-.33-.31-.22-.46-.65-.46-1.3,0-.77.15-1.24.44-1.39.29-.15.77-.23,1.42-.23h6.92c.62,0,1.08.09,1.39.26.31.17.46.58.46,1.23,0,.77-.15,1.26-.44,1.46-.29.2-.77.3-1.42.3h-6.92Z"/>
        <path class="cls-4" d="M125.43,33.6c-.62,0-1.08-.11-1.39-.33-.31-.22-.46-.65-.46-1.3,0-.77.15-1.24.44-1.39.29-.15.77-.23,1.42-.23h6.92c.62,0,1.08.09,1.39.26.31.17.46.58.46,1.23,0,.77-.15,1.26-.44,1.46-.29.2-.77.3-1.42.3h-6.92Z"/>
        <path class="cls-4" d="M132.31,33.6c-.62,0-1.08-.11-1.39-.33-.31-.22-.46-.65-.46-1.3,0-.77.15-1.24.44-1.39.29-.15.77-.23,1.42-.23h3.25c1.27,0,2.09-.29,2.46-.86s.56-1.51.56-2.81v-12.83h3.9v14.92c0,.28.11.52.33.72.22.2.49.36.81.49s.67.22,1.05.28c.37.06.7.09.98.09h1.21c.62,0,1.08.09,1.39.26.31.17.46.58.46,1.23,0,.77-.15,1.26-.44,1.46-.29.2-.77.3-1.42.3h-.84c-.9,0-1.7-.15-2.39-.44-.7-.29-1.29-.81-1.79-1.56-.37.5-.96.95-1.77,1.37-.81.42-2.01.63-3.62.63h-4.14ZM134.82,39.45c0-.68.24-1.26.72-1.74.48-.48,1.06-.72,1.74-.72s1.26.24,1.74.72c.48.48.72,1.06.72,1.74s-.24,1.26-.72,1.74c-.48.48-1.06.72-1.74.72s-1.26-.24-1.74-.72c-.48-.48-.72-1.06-.72-1.74ZM140.86,39.45c0-.68.24-1.26.72-1.74.48-.48,1.06-.72,1.74-.72s1.26.24,1.74.72c.48.48.72,1.06.72,1.74s-.24,1.26-.72,1.74c-.48.48-1.06.72-1.74.72s-1.26-.24-1.74-.72c-.48-.48-.72-1.06-.72-1.74Z"/>
        <path class="cls-4" d="M146.86,33.6c-.62,0-1.08-.11-1.39-.33-.31-.22-.46-.65-.46-1.3,0-.77.15-1.24.44-1.39.29-.15.77-.23,1.42-.23h3.25c1.27,0,2.09-.29,2.46-.86s.56-1.51.56-2.81v-12.83h3.9v14.92c0,.28.11.52.33.72.22.2.49.36.81.49s.67.22,1.05.28c.37.06.7.09.98.09h1.21c.62,0,1.08.09,1.39.26.31.17.46.58.46,1.23,0,.77-.15,1.26-.44,1.46-.29.2-.77.3-1.42.3h-.84c-.9,0-1.7-.15-2.39-.44-.7-.29-1.29-.81-1.79-1.56-.37.5-.96.95-1.77,1.37-.81.42-2.01.63-3.62.63h-4.14ZM152.43,39.31c0-.68.24-1.26.72-1.74.48-.48,1.06-.72,1.74-.72s1.26.24,1.74.72c.48.48.72,1.06.72,1.74s-.24,1.26-.72,1.74c-.48.48-1.06.72-1.74.72s-1.26-.24-1.74-.72c-.48-.48-.72-1.06-.72-1.74Z"/>
        <path class="cls-4" d="M161.4,33.6c-.62,0-1.08-.11-1.39-.33-.31-.22-.46-.65-.46-1.3,0-.77.15-1.24.44-1.39.29-.15.77-.23,1.42-.23h5.81V0h3.9v33.6h-9.71Z"/>
        <path class="cls-4" d="M182.68,0v33.6h-3.9V0h3.9Z"/>
        <path class="cls-4" d="M212.1,25.28c0-1.21-.08-2.32-.23-3.35-.16-1.02-.53-1.9-1.14-2.62s-1.51-1.3-2.72-1.72c-1.21-.42-2.88-.63-5.02-.63h-3.72v-3.11h4c2.63,0,4.79.26,6.46.77,1.67.51,2.97,1.23,3.89,2.16.92.93,1.55,2.04,1.88,3.35.34,1.3.51,2.76.51,4.37v4.28c0,.28.11.52.33.72.22.2.49.36.82.49s.68.22,1.05.28c.37.06.7.09.98.09h.84c.62,0,1.09.09,1.41.26.31.17.47.58.47,1.23,0,.77-.15,1.26-.44,1.46-.3.2-.77.3-1.43.3h-.47c-.9,0-1.71-.15-2.41-.44-.7-.29-1.3-.81-1.8-1.56-.37.5-.95.95-1.75,1.37s-2,.63-3.61.63h-13.62v-3.25h12.69c1.27,0,2.09-.29,2.46-.86.37-.57.56-1.51.56-2.81v-1.39Z"/>
        <path class="cls-4" d="M220.05,33.6c-1.24,0-1.86-.54-1.86-1.63,0-.71.15-1.16.44-1.35.29-.19.77-.28,1.42-.28h10.18c-1.3-1.05-2.36-2.07-3.18-3.04-.82-.98-1.46-1.88-1.93-2.72-.46-.84-.77-1.61-.93-2.32-.16-.71-.23-1.35-.23-1.91,0-1.15.25-2.15.74-3.02.5-.87,1.17-1.59,2.02-2.18.85-.59,1.87-1.02,3.04-1.3,1.18-.28,2.46-.42,3.86-.42s2.68.13,3.86.4c1.18.26,2.2.67,3.07,1.23.87.56,1.54,1.26,2.02,2.11.48.85.72,1.87.72,3.04s-.44,2.69-1.32,4.44c-.88,1.75-2.53,3.65-4.95,5.69h8.88c.62,0,1.08.09,1.39.26.31.17.46.58.46,1.23,0,.77-.15,1.26-.44,1.46-.29.2-.77.3-1.42.3h-5.62c-1.02,0-1.89-.04-2.6-.12-.71-.08-1.31-.18-1.79-.3-.48-.12-.89-.26-1.23-.39-.34-.14-.67-.26-.98-.35-.31.09-.64.21-1,.35-.36.14-.79.27-1.3.39-.51.12-1.14.22-1.88.3-.74.08-1.67.12-2.79.12h-6.65ZM233.62,16.59c-.77,0-1.51.09-2.21.26-.7.17-1.3.43-1.81.79s-.91.81-1.21,1.37c-.29.56-.44,1.22-.44,2,0,.34.05.77.14,1.28.09.51.33,1.1.72,1.77.39.67.96,1.43,1.72,2.3.76.87,1.8,1.83,3.14,2.88,1.21-.93,2.18-1.82,2.93-2.67.74-.85,1.32-1.64,1.72-2.37.4-.73.67-1.38.79-1.95.12-.57.19-1.05.19-1.42,0-.84-.18-1.53-.53-2.07-.36-.54-.81-.98-1.37-1.3s-1.17-.55-1.84-.67c-.67-.12-1.31-.19-1.93-.19Z"/>
        <path class="cls-4" d="M245.84,33.6c-.62,0-1.08-.11-1.39-.33-.31-.22-.46-.65-.46-1.3,0-1.08.62-1.63,1.86-1.63h5.81V13.85h3.9v19.75h-9.71ZM251.13,39.31c0-.68.24-1.26.72-1.74.48-.48,1.06-.72,1.74-.72s1.26.24,1.74.72c.48.48.72,1.06.72,1.74s-.24,1.26-.72,1.74c-.48.48-1.06.72-1.74.72s-1.26-.24-1.74-.72c-.48-.48-.72-1.06-.72-1.74Z"/>
        <path class="cls-4" d="M280.92,31.83c0,.77-.16,1.26-.46,1.46-.31.2-.79.3-1.44.3h-1.77c-1.98,0-3.58-.49-4.79-1.46-1.21-.98-1.81-2.62-1.81-4.95V0h3.9v26.63c0,1.21.2,2.13.6,2.77.4.63,1.29.95,2.65.95h1.21c.62,0,1.09.09,1.42.26.33.17.49.58.49,1.23Z"/>
        <path class="cls-4" d="M285.62,30.34c-.37-.87-.76-1.96-1.16-3.28-.4-1.32-.6-2.76-.6-4.34,0-1.27.22-2.47.65-3.6.43-1.13,1.07-2.11,1.91-2.95.84-.84,1.87-1.5,3.11-2,1.24-.5,2.65-.74,4.23-.74,1.77,0,3.25.29,4.46.88,1.21.59,2.18,1.36,2.93,2.3.74.95,1.28,2,1.6,3.16.33,1.16.49,2.3.49,3.42,0,1.36-.2,2.67-.6,3.93-.4,1.25-.99,2.36-1.77,3.32-.77.96-1.74,1.73-2.9,2.3-1.16.57-2.5.86-4.02.86h-14.92c-.62,0-1.08-.11-1.39-.33-.31-.22-.46-.65-.46-1.3,0-.77.15-1.24.44-1.39.29-.15.77-.23,1.42-.23h6.6ZM293.52,30.34c.99,0,1.84-.21,2.56-.63.71-.42,1.3-.96,1.77-1.63.46-.67.81-1.42,1.02-2.28.22-.85.33-1.7.33-2.53,0-1.98-.47-3.6-1.42-4.86-.95-1.25-2.33-1.88-4.16-1.88-.71,0-1.42.12-2.11.35-.7.23-1.31.6-1.84,1.12-.53.51-.95,1.17-1.28,1.98s-.49,1.77-.49,2.88c0,.81.07,1.57.21,2.3.14.73.31,1.42.51,2.07.2.65.41,1.24.63,1.77.22.53.42.98.6,1.35h3.67Z"/>
        <path class="cls-4" d="M351.98,30.34V13.85h3.9v19.75h-30.9c-1.98,0-3.59-.49-4.81-1.46-1.22-.98-1.84-2.62-1.84-4.95v-9.15h3.9v8.6c0,1.05.21,1.94.63,2.65s1.31,1.07,2.68,1.07h26.44ZM331.9,10.41c0-.68.24-1.26.72-1.74.48-.48,1.06-.72,1.74-.72s1.26.24,1.74.72c.48.48.72,1.06.72,1.74s-.24,1.26-.72,1.74c-.48.48-1.06.72-1.74.72s-1.26-.24-1.74-.72c-.48-.48-.72-1.06-.72-1.74ZM337.94,10.41c0-.68.24-1.26.72-1.74.48-.48,1.06-.72,1.74-.72s1.26.24,1.74.72c.48.48.72,1.06.72,1.74s-.24,1.26-.72,1.74c-.48.48-1.06.72-1.74.72s-1.26-.24-1.74-.72c-.48-.48-.72-1.06-.72-1.74Z"/>
        <path class="cls-4" d="M373.12,31.83c0,.77-.16,1.26-.46,1.46-.31.2-.79.3-1.44.3h-1.77c-1.98,0-3.58-.49-4.79-1.46-1.21-.98-1.81-2.62-1.81-4.95V0h3.9v26.63c0,1.21.2,2.13.6,2.77.4.63,1.29.95,2.65.95h1.21c.62,0,1.09.09,1.42.26.33.17.49.58.49,1.23Z"/>
        <path class="cls-4" d="M371.21,33.6c-.62,0-1.08-.11-1.39-.33-.31-.22-.46-.65-.46-1.3,0-.77.15-1.24.44-1.39.29-.15.77-.23,1.42-.23h6.92c.62,0,1.08.09,1.39.26.31.17.46.58.46,1.23,0,.77-.15,1.26-.44,1.46-.29.2-.77.3-1.42.3h-6.92Z"/>
        <path class="cls-4" d="M384.69,30.34c-.37-.87-.76-1.96-1.16-3.28-.4-1.32-.6-2.76-.6-4.34,0-1.27.22-2.47.65-3.6.43-1.13,1.07-2.11,1.91-2.95.84-.84,1.87-1.5,3.11-2,1.24-.5,2.65-.74,4.23-.74,1.77,0,3.25.29,4.46.88,1.21.59,2.18,1.36,2.93,2.3.74.95,1.28,2,1.6,3.16.33,1.16.49,2.3.49,3.42,0,1.36-.2,2.67-.6,3.93-.4,1.25-.99,2.36-1.77,3.32-.77.96-1.74,1.73-2.9,2.3-1.16.57-2.5.86-4.02.86h-14.92c-.62,0-1.08-.11-1.39-.33-.31-.22-.46-.65-.46-1.3,0-.77.15-1.24.44-1.39.29-.15.77-.23,1.42-.23h6.6ZM392.59,30.34c.99,0,1.84-.21,2.56-.63.71-.42,1.3-.96,1.77-1.63.46-.67.81-1.42,1.02-2.28.22-.85.33-1.7.33-2.53,0-1.98-.47-3.6-1.42-4.86-.95-1.25-2.33-1.88-4.16-1.88-.71,0-1.42.12-2.11.35-.7.23-1.31.6-1.84,1.12-.53.51-.95,1.17-1.28,1.98s-.49,1.77-.49,2.88c0,.81.07,1.57.21,2.3.14.73.31,1.42.51,2.07.2.65.41,1.24.63,1.77.22.53.42.98.6,1.35h3.67Z"/>
        <path class="cls-4" d="M422.42,25.28c0-1.21-.08-2.32-.23-3.35-.16-1.02-.53-1.9-1.14-2.62s-1.51-1.3-2.72-1.72c-1.21-.42-2.88-.63-5.02-.63h-3.72v-3.11h4c2.63,0,4.79.26,6.46.77,1.67.51,2.97,1.23,3.89,2.16.92.93,1.55,2.04,1.88,3.35.34,1.3.51,2.76.51,4.37v4.28c0,.28.11.52.33.72.22.2.49.36.82.49s.68.22,1.05.28c.37.06.7.09.98.09h.84c.62,0,1.09.09,1.41.26.31.17.47.58.47,1.23,0,.77-.15,1.26-.44,1.46-.3.2-.77.3-1.43.3h-.47c-.9,0-1.71-.15-2.41-.44-.7-.29-1.3-.81-1.8-1.56-.37.5-.95.95-1.75,1.37s-2,.63-3.61.63h-13.62v-3.25h12.69c1.27,0,2.09-.29,2.46-.86.37-.57.56-1.51.56-2.81v-1.39Z"/>
        <path class="cls-4" d="M438.08,16.59c-1.21,0-2.25.1-3.11.3-.87.2-1.55.38-2.04.53v-2.93c.56-.25,1.32-.49,2.3-.72.98-.23,2.11-.35,3.42-.35,2.01,0,3.62.32,4.81.95,1.19.63,2.12,1.46,2.79,2.46.67,1.01,1.12,2.14,1.37,3.39.25,1.25.46,2.51.63,3.76.17,1.25.36,2.44.58,3.55.22,1.12.62,2.04,1.21,2.79v3.25h-19.66c-1.24,0-1.86-.54-1.86-1.63,0-.68.15-1.12.44-1.32.29-.2.77-.3,1.42-.3h15.43c-.5-.77-.84-1.66-1.05-2.65-.2-.99-.36-2-.49-3.02-.12-1.02-.26-2.01-.42-2.97-.16-.96-.44-1.82-.86-2.58-.42-.76-1.01-1.37-1.77-1.83-.76-.46-1.8-.7-3.14-.7ZM436.32,7.67c0-.68.24-1.26.72-1.74.48-.48,1.06-.72,1.74-.72s1.26.24,1.74.72c.48.48.72,1.06.72,1.74s-.24,1.26-.72,1.74c-.48.48-1.06.72-1.74.72s-1.26-.24-1.74-.72c-.48-.48-.72-1.06-.72-1.74Z"/>
      </g>
      <g>
        <path class="cls-4" d="M95.41,90.98l-3.49-8.88h-16.26l-3.44,8.88h-4.41l13.66-33.6h4.79l14.17,33.6h-5.02ZM83.61,61.19l-6.74,17.66h13.71l-6.97-17.66Z"/>
        <path class="cls-4" d="M114.91,60.15c-.29-.02-.6-.02-.91-.02-1.15,0-2.07.2-2.77.6-.7.4-1.05,1.24-1.05,2.51v4.28h5.25v2.83h-5.25v20.63h-4.09v-20.63h-4.69v-2.83h4.69v-2.23c0-1.18.06-2.27.19-3.28.12-1.01.4-1.87.84-2.6.43-.73,1.07-1.29,1.91-1.7.84-.4,1.97-.6,3.39-.6,1.08,0,2.21.05,3.39.14v2.97c-.31-.03-.61-.05-.91-.07Z"/>
        <path class="cls-4" d="M127.52,91.21c-1.89,0-3.32-.42-4.28-1.25-.96-.84-1.44-2.23-1.44-4.18v-15.43h-4.6v-2.83h4.6v-4.55l4.09-1.72v6.27h5.25v2.83h-5.25v13.8c0,.71.03,1.32.09,1.81.06.5.21.9.44,1.21.23.31.56.53.98.67.42.14.98.21,1.7.21.37,0,.73-.02,1.07-.07.34-.05.71-.1,1.12-.16v3.11c-1.3.19-2.56.28-3.76.28Z"/>
        <path class="cls-4" d="M138.68,80.01v.46c0,1.08.15,2.12.44,3.11.29.99.74,1.87,1.32,2.65.59.77,1.32,1.39,2.21,1.84.88.45,1.91.67,3.09.67,1.67,0,3.04-.47,4.09-1.42,1.05-.94,1.7-2.25,1.95-3.93h3.9c-.46,2.76-1.63,4.79-3.48,6.11-1.86,1.32-4.12,1.98-6.78,1.98-1.83,0-3.42-.29-4.76-.86-1.35-.57-2.47-1.38-3.37-2.44-.9-1.05-1.57-2.3-2.02-3.76-.45-1.45-.67-3.05-.67-4.78s.22-3.4.67-4.92c.45-1.51,1.13-2.84,2.04-3.97.91-1.13,2.07-2.02,3.46-2.67,1.39-.65,3.05-.97,4.97-.97s3.58.35,4.88,1.07c1.3.71,2.34,1.65,3.11,2.82.77,1.17,1.32,2.54,1.63,4.1.31,1.56.46,3.19.46,4.88h-17.15ZM151.78,77.27c0-.95-.12-1.88-.35-2.77-.23-.89-.6-1.68-1.12-2.35-.51-.68-1.16-1.22-1.95-1.64-.79-.42-1.71-.62-2.77-.62s-2.03.2-2.83.6c-.81.4-1.49.95-2.04,1.64-.56.69-1,1.49-1.32,2.38-.33.89-.53,1.82-.63,2.77h13.01Z"/>
        <path class="cls-4" d="M173.25,71.19c-.34-.03-.68-.05-1.02-.05-2.42,0-4.09.64-5.02,1.93-.93,1.29-1.39,3.04-1.39,5.27v12.64h-4.09v-16.59c0-2.29-.05-4.58-.14-6.88h4l.19,3.76c.84-1.39,1.84-2.39,3-3,1.16-.6,2.55-.91,4.16-.91.22,0,.44,0,.67.02s.44.04.63.07v3.86c-.31-.06-.64-.11-.98-.14Z"/>
        <path class="cls-4" d="M175.25,80.11v-3.07h12.13v3.07h-12.13Z"/>
        <path class="cls-4" d="M210.1,84.2c0,1.33-.28,2.46-.84,3.39-.56.93-1.29,1.68-2.21,2.25-.91.57-1.94.99-3.07,1.25-1.13.26-2.27.4-3.42.4-1.24,0-2.42-.13-3.53-.4s-2.09-.7-2.93-1.3-1.5-1.39-1.98-2.35c-.48-.96-.72-2.15-.72-3.58h4.09c.09,1.64.59,2.85,1.49,3.62.9.77,2.15,1.16,3.76,1.16.62,0,1.24-.08,1.86-.23.62-.15,1.19-.39,1.7-.72s.93-.73,1.25-1.23c.33-.49.49-1.1.49-1.81,0-.62-.13-1.14-.4-1.58-.26-.43-.63-.81-1.09-1.14-.46-.32-1.01-.6-1.63-.81-.62-.22-1.27-.4-1.95-.56l-1.91-.46c-.87-.22-1.73-.48-2.58-.79-.85-.31-1.61-.7-2.28-1.18-.67-.48-1.2-1.08-1.6-1.81-.4-.73-.6-1.62-.6-2.67,0-1.21.27-2.23.81-3.08.54-.85,1.24-1.55,2.09-2.09s1.81-.93,2.88-1.16c1.07-.23,2.11-.35,3.14-.35,1.18,0,2.28.13,3.3.4,1.02.26,1.92.67,2.7,1.23.77.56,1.39,1.29,1.84,2.18.45.9.7,2,.77,3.3h-4.04c-.06-1.41-.5-2.49-1.32-3.24-.82-.75-1.93-1.13-3.32-1.13-.53,0-1.08.06-1.65.19-.57.12-1.09.33-1.56.6s-.85.64-1.16,1.09c-.31.45-.46.98-.46,1.6,0,1.08.49,1.92,1.46,2.51.98.59,2.16,1.05,3.55,1.39l1.86.46c1.02.25,1.98.54,2.86.88.88.34,1.64.77,2.28,1.28.63.51,1.14,1.12,1.51,1.84.37.71.56,1.58.56,2.6Z"/>
        <path class="cls-4" d="M230.97,90.98c-.09-.5-.18-1.05-.26-1.65-.08-.6-.13-1.15-.16-1.65-.99,1.43-2.14,2.42-3.44,2.97-1.3.56-2.8.84-4.51.84-1.08,0-2.12-.14-3.11-.42-.99-.28-1.87-.7-2.63-1.28-.76-.57-1.36-1.29-1.81-2.16-.45-.87-.67-1.91-.67-3.11,0-1.77.43-3.17,1.3-4.21.87-1.04,1.96-1.83,3.28-2.37,1.32-.54,2.77-.89,4.35-1.05,1.58-.15,3.08-.23,4.51-.23.43,0,.84,0,1.23.02.39.02.75.04,1.09.07v-1.39c0-1.8-.38-3.19-1.14-4.18-.76-.99-2.1-1.49-4.02-1.49-1.46,0-2.6.3-3.42.91-.82.6-1.31,1.68-1.46,3.23h-4c.06-1.27.35-2.34.86-3.21.51-.87,1.17-1.56,1.97-2.09.81-.53,1.72-.91,2.74-1.14,1.02-.23,2.09-.35,3.21-.35,3,0,5.24.64,6.72,1.91,1.47,1.27,2.21,3.44,2.21,6.51v8.64c0,1.55.08,2.95.26,4.21.17,1.25.33,2.15.49,2.67h-3.58ZM230.13,79.22c-.5-.06-.88-.09-1.16-.09h-.93c-.9,0-1.91.05-3.02.14s-2.16.32-3.14.67c-.98.36-1.79.88-2.44,1.56-.65.68-.98,1.63-.98,2.83,0,.71.14,1.35.42,1.91.28.56.66,1.02,1.14,1.39.48.37,1.03.65,1.65.84.62.19,1.27.28,1.95.28,1.49,0,2.66-.27,3.51-.81.85-.54,1.5-1.26,1.95-2.16.45-.9.74-1.92.86-3.07.12-1.15.19-2.31.19-3.49Z"/>
        <path class="cls-4" d="M241.61,90.98v-33.6h4.09v33.6h-4.09Z"/>
        <path class="cls-4" d="M255.69,80.01v.46c0,1.08.15,2.12.44,3.11.29.99.74,1.87,1.32,2.65.59.77,1.32,1.39,2.21,1.84.88.45,1.91.67,3.09.67,1.67,0,3.04-.47,4.09-1.42,1.05-.94,1.7-2.25,1.95-3.93h3.9c-.46,2.76-1.63,4.79-3.48,6.11-1.86,1.32-4.12,1.98-6.78,1.98-1.83,0-3.42-.29-4.76-.86-1.35-.57-2.47-1.38-3.37-2.44-.9-1.05-1.57-2.3-2.02-3.76-.45-1.45-.67-3.05-.67-4.78s.22-3.4.67-4.92c.45-1.51,1.13-2.84,2.04-3.97.91-1.13,2.07-2.02,3.46-2.67,1.39-.65,3.05-.97,4.97-.97s3.58.35,4.88,1.07c1.3.71,2.34,1.65,3.11,2.82.77,1.17,1.32,2.54,1.63,4.1.31,1.56.46,3.19.46,4.88h-17.15ZM268.79,77.27c0-.95-.12-1.88-.35-2.77-.23-.89-.6-1.68-1.12-2.35-.51-.68-1.16-1.22-1.95-1.64-.79-.42-1.71-.62-2.77-.62s-2.03.2-2.83.6c-.81.4-1.49.95-2.04,1.64-.56.69-1,1.49-1.32,2.38-.33.89-.53,1.82-.63,2.77h13.01Z"/>
        <path class="cls-4" d="M295.79,84.2c0,1.33-.28,2.46-.84,3.39-.56.93-1.29,1.68-2.21,2.25-.91.57-1.94.99-3.07,1.25-1.13.26-2.27.4-3.42.4-1.24,0-2.42-.13-3.53-.4s-2.09-.7-2.93-1.3-1.5-1.39-1.98-2.35c-.48-.96-.72-2.15-.72-3.58h4.09c.09,1.64.59,2.85,1.49,3.62.9.77,2.15,1.16,3.76,1.16.62,0,1.24-.08,1.86-.23.62-.15,1.19-.39,1.7-.72s.93-.73,1.25-1.23c.33-.49.49-1.1.49-1.81,0-.62-.13-1.14-.4-1.58-.26-.43-.63-.81-1.09-1.14-.46-.32-1.01-.6-1.63-.81-.62-.22-1.27-.4-1.95-.56l-1.91-.46c-.87-.22-1.73-.48-2.58-.79-.85-.31-1.61-.7-2.28-1.18-.67-.48-1.2-1.08-1.6-1.81-.4-.73-.6-1.62-.6-2.67,0-1.21.27-2.23.81-3.08.54-.85,1.24-1.55,2.09-2.09s1.81-.93,2.88-1.16c1.07-.23,2.11-.35,3.14-.35,1.18,0,2.28.13,3.3.4,1.02.26,1.92.67,2.7,1.23.77.56,1.39,1.29,1.84,2.18.45.9.7,2,.77,3.3h-4.04c-.06-1.41-.5-2.49-1.32-3.24-.82-.75-1.93-1.13-3.32-1.13-.53,0-1.08.06-1.65.19-.57.12-1.09.33-1.56.6s-.85.64-1.16,1.09c-.31.45-.46.98-.46,1.6,0,1.08.49,1.92,1.46,2.51.98.59,2.16,1.05,3.55,1.39l1.86.46c1.02.25,1.98.54,2.86.88.88.34,1.64.77,2.28,1.28.63.51,1.14,1.12,1.51,1.84.37.71.56,1.58.56,2.6Z"/>
        <path class="cls-4" d="M332.32,84.2c0,1.33-.28,2.46-.84,3.39-.56.93-1.29,1.68-2.21,2.25-.91.57-1.94.99-3.07,1.25-1.13.26-2.27.4-3.42.4-1.24,0-2.42-.13-3.53-.4s-2.09-.7-2.93-1.3-1.5-1.39-1.98-2.35c-.48-.96-.72-2.15-.72-3.58h4.09c.09,1.64.59,2.85,1.49,3.62.9.77,2.15,1.16,3.76,1.16.62,0,1.24-.08,1.86-.23.62-.15,1.19-.39,1.7-.72s.93-.73,1.25-1.23c.33-.49.49-1.1.49-1.81,0-.62-.13-1.14-.4-1.58-.26-.43-.63-.81-1.09-1.14-.46-.32-1.01-.6-1.63-.81-.62-.22-1.27-.4-1.95-.56l-1.91-.46c-.87-.22-1.73-.48-2.58-.79-.85-.31-1.61-.7-2.28-1.18-.67-.48-1.2-1.08-1.6-1.81-.4-.73-.6-1.62-.6-2.67,0-1.21.27-2.23.81-3.08.54-.85,1.24-1.55,2.09-2.09s1.81-.93,2.88-1.16c1.07-.23,2.11-.35,3.14-.35,1.18,0,2.28.13,3.3.4,1.02.26,1.92.67,2.7,1.23.77.56,1.39,1.29,1.84,2.18.45.9.7,2,.77,3.3h-4.04c-.06-1.41-.5-2.49-1.32-3.24-.82-.75-1.93-1.13-3.32-1.13-.53,0-1.08.06-1.65.19-.57.12-1.09.33-1.56.6s-.85.64-1.16,1.09c-.31.45-.46.98-.46,1.6,0,1.08.49,1.92,1.46,2.51.98.59,2.16,1.05,3.55,1.39l1.86.46c1.02.25,1.98.54,2.86.88.88.34,1.64.77,2.28,1.28.63.51,1.14,1.12,1.51,1.84.37.71.56,1.58.56,2.6Z"/>
        <path class="cls-4" d="M340.68,80.01v.46c0,1.08.15,2.12.44,3.11.29.99.74,1.87,1.32,2.65.59.77,1.32,1.39,2.21,1.84.88.45,1.91.67,3.09.67,1.67,0,3.04-.47,4.09-1.42,1.05-.94,1.7-2.25,1.95-3.93h3.9c-.46,2.76-1.63,4.79-3.48,6.11-1.86,1.32-4.12,1.98-6.78,1.98-1.83,0-3.42-.29-4.76-.86-1.35-.57-2.47-1.38-3.37-2.44-.9-1.05-1.57-2.3-2.02-3.76-.45-1.45-.67-3.05-.67-4.78s.22-3.4.67-4.92c.45-1.51,1.13-2.84,2.04-3.97.91-1.13,2.07-2.02,3.46-2.67,1.39-.65,3.05-.97,4.97-.97s3.58.35,4.88,1.07c1.3.71,2.34,1.65,3.11,2.82.77,1.17,1.32,2.54,1.63,4.1.31,1.56.46,3.19.46,4.88h-17.15ZM353.79,77.27c0-.95-.12-1.88-.35-2.77-.23-.89-.6-1.68-1.12-2.35-.51-.68-1.16-1.22-1.95-1.64-.79-.42-1.71-.62-2.77-.62s-2.03.2-2.83.6c-.81.4-1.49.95-2.04,1.64-.56.69-1,1.49-1.32,2.38-.33.89-.53,1.82-.63,2.77h13.01Z"/>
        <path class="cls-4" d="M375.26,71.19c-.34-.03-.68-.05-1.02-.05-2.42,0-4.09.64-5.02,1.93-.93,1.29-1.39,3.04-1.39,5.27v12.64h-4.09v-16.59c0-2.29-.05-4.58-.14-6.88h4l.19,3.76c.84-1.39,1.84-2.39,3-3,1.16-.6,2.55-.91,4.16-.91.22,0,.44,0,.67.02s.44.04.63.07v3.86c-.31-.06-.64-.11-.98-.14Z"/>
        <path class="cls-4" d="M391.2,90.98h-4.28l-9.53-23.47h4.65l7.3,19.52,7.44-19.52h4.18l-9.76,23.47Z"/>
        <path class="cls-4" d="M405,61.52v-4.14h4.55v4.14h-4.55ZM405.23,90.98v-23.47h4.09v23.47h-4.09Z"/>
        <path class="cls-4" d="M435.55,86.8c-.54,1.05-1.25,1.93-2.14,2.63-.88.7-1.91,1.22-3.07,1.56s-2.41.51-3.74.51c-1.86,0-3.49-.29-4.9-.88-1.41-.59-2.6-1.41-3.56-2.46-.96-1.05-1.69-2.32-2.18-3.79-.5-1.47-.74-3.09-.74-4.86s.25-3.47.74-5.02c.5-1.55,1.23-2.89,2.21-4.02.98-1.13,2.18-2.01,3.62-2.65,1.44-.63,3.12-.95,5.04-.95,2.66,0,4.86.67,6.6,2.02,1.73,1.35,2.73,3.42,2.97,6.2h-4c-.12-1.67-.67-2.98-1.63-3.93-.96-.94-2.28-1.42-3.95-1.42-1.39,0-2.56.28-3.49.84-.93.56-1.67,1.29-2.23,2.19-.56.9-.96,1.93-1.21,3.07-.25,1.15-.37,2.31-.37,3.49,0,1.12.12,2.24.37,3.35.25,1.12.66,2.13,1.23,3.03.57.9,1.31,1.63,2.21,2.19.9.56,2,.84,3.3.84,1.73,0,3.11-.52,4.14-1.55,1.02-1.03,1.6-2.41,1.72-4.12h3.86l.14.05c-.09,1.39-.41,2.62-.95,3.67Z"/>
        <path class="cls-4" d="M444.22,80.01v.46c0,1.08.15,2.12.44,3.11.29.99.74,1.87,1.32,2.65.59.77,1.32,1.39,2.21,1.84.88.45,1.91.67,3.09.67,1.67,0,3.04-.47,4.09-1.42,1.05-.94,1.7-2.25,1.95-3.93h3.9c-.46,2.76-1.63,4.79-3.48,6.11-1.86,1.32-4.12,1.98-6.78,1.98-1.83,0-3.42-.29-4.76-.86-1.35-.57-2.47-1.38-3.37-2.44-.9-1.05-1.57-2.3-2.02-3.76-.45-1.45-.67-3.05-.67-4.78s.22-3.4.67-4.92c.45-1.51,1.13-2.84,2.04-3.97.91-1.13,2.07-2.02,3.46-2.67,1.39-.65,3.05-.97,4.97-.97s3.58.35,4.88,1.07c1.3.71,2.34,1.65,3.11,2.82.77,1.17,1.32,2.54,1.63,4.1.31,1.56.46,3.19.46,4.88h-17.15ZM457.32,77.27c0-.95-.12-1.88-.35-2.77-.23-.89-.6-1.68-1.12-2.35-.51-.68-1.16-1.22-1.95-1.64-.79-.42-1.71-.62-2.77-.62s-2.03.2-2.83.6c-.81.4-1.49.95-2.04,1.64-.56.69-1,1.49-1.32,2.38-.33.89-.53,1.82-.63,2.77h13.01Z"/>
      </g>
      <g>
        <path class="cls-4" d="M413.98,234.54c0,.37-.07.6-.21.69-.14.09-.36.14-.67.14h-.88c-.62,0-1.15-.09-1.59-.28-.45-.18-.79-.49-1.04-.91h-2.04c-1.74,0-3.03-.33-3.87-1-.84-.67-1.26-1.65-1.26-2.94,0-1.53.47-2.64,1.43-3.34s2.27-1.06,3.95-1.06c.19,0,.43,0,.72.02.29.01.59.03.9.05.31.02.6.05.89.08s.53.06.74.09v5.98c0,.5.1.92.3,1.25.2.34.62.51,1.26.51h.51c.29,0,.51.04.66.12.15.08.22.28.22.58ZM404.32,230.08c0,.94.31,1.61.92,2.02.62.41,1.5.62,2.64.62h1.3v-5.3c-.35-.04-.67-.07-.96-.09s-.47-.02-.54-.02c-1.03,0-1.84.21-2.45.64-.61.42-.91,1.14-.91,2.13ZM404.52,223.1c0-.32.11-.6.34-.82.23-.23.5-.34.82-.34s.6.11.83.34.34.5.34.82-.11.6-.34.83c-.23.23-.5.34-.83.34s-.6-.11-.82-.34c-.23-.23-.34-.5-.34-.83ZM407.38,223.1c0-.32.11-.6.34-.82s.5-.34.83-.34.6.11.83.34c.23.23.34.5.34.82s-.11.6-.34.83-.5.34-.83.34-.6-.11-.83-.34c-.23-.23-.34-.5-.34-.83Z"/>
        <path class="cls-4" d="M413.12,235.38c-.29,0-.51-.05-.66-.15-.15-.1-.22-.31-.22-.62,0-.37.07-.59.21-.66s.36-.11.67-.11h3.28c.29,0,.51.04.66.12.15.08.22.28.22.58,0,.37-.07.6-.21.69-.14.09-.36.14-.67.14h-3.28Z"/>
        <path class="cls-4" d="M416.38,235.38c-.29,0-.51-.05-.66-.15-.15-.1-.22-.31-.22-.62,0-.37.07-.59.21-.66s.36-.11.67-.11h3.28c.29,0,.51.04.66.12.15.08.22.28.22.58,0,.37-.07.6-.21.69-.14.09-.36.14-.67.14h-3.28Z"/>
        <path class="cls-4" d="M419.79,235.38c-.29,0-.51-.05-.66-.15-.15-.1-.22-.31-.22-.62,0-.51.29-.77.88-.77h2.75v-7.81h1.85v9.35h-4.6ZM422.23,223.1c0-.32.11-.6.34-.82s.5-.34.83-.34.6.11.83.34.34.5.34.82-.11.6-.34.83c-.23.23-.5.34-.83.34s-.6-.11-.83-.34c-.23-.23-.34-.5-.34-.83Z"/>
        <path class="cls-4" d="M432.96,234.54c0,.37-.07.6-.22.69-.15.09-.37.14-.68.14h-.84c-.94,0-1.69-.23-2.27-.69s-.86-1.24-.86-2.34v-12.87h1.85v12.61c0,.57.09,1.01.29,1.31.19.3.61.45,1.25.45h.57c.29,0,.52.04.67.12.15.08.23.28.23.58Z"/>
        <path class="cls-4" d="M432.06,235.38c-.29,0-.51-.05-.66-.15-.15-.1-.22-.31-.22-.62,0-.37.07-.59.21-.66s.36-.11.67-.11h1.54c.6,0,.99-.14,1.17-.41.18-.27.26-.71.26-1.33v-6.07h1.85v7.06c0,.13.05.25.15.34.1.1.23.17.39.23.15.06.32.1.49.13.18.03.33.04.46.04h.57c.29,0,.51.04.66.12.15.08.22.28.22.58,0,.37-.07.6-.21.69-.14.09-.36.14-.67.14h-.4c-.43,0-.8-.07-1.13-.21-.33-.14-.61-.38-.85-.74-.18.24-.45.45-.84.65s-.95.3-1.72.3h-1.96ZM433.25,238.15c0-.32.11-.6.34-.83.23-.23.5-.34.82-.34s.6.11.83.34c.23.23.34.5.34.83s-.11.6-.34.82-.5.34-.83.34-.6-.11-.82-.34c-.23-.23-.34-.5-.34-.82ZM436.11,238.15c0-.32.11-.6.34-.83.23-.23.5-.34.83-.34s.6.11.83.34c.23.23.34.5.34.83s-.11.6-.34.82-.5.34-.83.34-.6-.11-.83-.34-.34-.5-.34-.82Z"/>
        <path class="cls-4" d="M443.66,226.82c.32-.07.72-.16,1.21-.25.48-.1.99-.18,1.51-.26.53-.08,1.05-.15,1.58-.2.53-.05,1-.08,1.43-.08,1.23,0,2.24.14,3.02.41.78.27,1.4.65,1.84,1.13.45.48.75,1.07.91,1.75.16.68.24,1.43.24,2.23v1.54c0,.13.05.25.16.34.1.1.23.17.38.23.15.06.31.1.49.13.18.03.33.04.47.04h.42c.3,0,.52.04.67.12.15.08.22.28.22.58,0,.37-.07.6-.21.69-.14.09-.37.14-.67.14h-.24c-.43,0-.81-.07-1.14-.21s-.62-.38-.85-.74c-.18.24-.45.45-.83.65s-.95.3-1.71.3h-13.58c-.29,0-.51-.05-.66-.15-.15-.1-.22-.31-.22-.62,0-.37.07-.59.21-.66s.36-.11.67-.11h2.86v-7.81h1.85v.79ZM453.56,231.93c0-.75-.07-1.4-.2-1.95-.13-.55-.37-1.01-.73-1.38-.35-.37-.82-.64-1.42-.82-.59-.18-1.35-.28-2.28-.28-.44,0-.9.02-1.38.07-.48.04-.95.1-1.43.18s-.93.15-1.35.23c-.43.08-.8.17-1.12.25v5.61h8.47c.6,0,.99-.14,1.17-.41.18-.27.26-.71.26-1.33v-.18Z"/>
        <path class="cls-4" d="M457.32,235.38c-.29,0-.51-.05-.66-.15-.15-.1-.22-.31-.22-.62,0-.37.07-.59.21-.66s.36-.11.67-.11h2.75v-14.37h1.85v15.91h-4.6Z"/>
        <path class="cls-4" d="M467.39,219.47v15.91h-1.85v-15.91h1.85Z"/>
      </g>
      <g>
        <path class="cls-4" d="M221.91,205.55c-.4.19-.81.36-1.25.5-.44.14-.85.3-1.23.47-.38.18-.7.4-.95.67-.25.27-.37.63-.37,1.07,0,.31.08.58.24.8s.38.41.66.56.61.26.98.33.77.11,1.2.11c.28,0,.52,0,.74-.01.21,0,.42-.01.62-.02.2,0,.4-.03.6-.05s.43-.07.68-.11v1.45c-.54.13-1.01.21-1.4.24s-.75.04-1.09.04c-1.75,0-3.02-.3-3.83-.91s-1.21-1.42-1.21-2.43c0-.57.13-1.05.38-1.44s.59-.71.99-.98c.4-.26.85-.48,1.35-.66.5-.18.99-.34,1.47-.51l-.15-.11c-.62-.5-1.12-.98-1.51-1.44-.39-.46-.69-.89-.91-1.29-.22-.4-.37-.76-.44-1.1-.07-.34-.11-.64-.11-.9,0-.54.12-1.02.35-1.43.24-.41.55-.75.96-1.03.4-.28.88-.48,1.44-.62.56-.13,1.17-.2,1.83-.2s1.27.06,1.83.19c.56.12,1.04.32,1.45.58.41.26.73.6.96,1,.23.4.34.88.34,1.44s-.21,1.27-.63,2.1c-.42.83-1.2,1.73-2.34,2.7h4.2c.29,0,.51.04.66.12.15.08.22.28.22.58,0,.37-.07.6-.21.69-.14.09-.36.14-.67.14h-2.66c-.48,0-.89-.02-1.23-.05-.34-.04-.63-.08-.87-.14s-.45-.12-.62-.19c-.17-.07-.33-.12-.47-.17ZM221.96,198.05c-.37,0-.71.04-1.04.12-.33.08-.62.21-.86.37-.24.17-.43.38-.57.65-.14.26-.21.58-.21.95,0,.16.02.36.07.6.04.24.16.52.34.84.18.32.46.68.81,1.09.36.41.85.87,1.48,1.36.57-.44,1.03-.86,1.39-1.26.35-.4.62-.78.81-1.12s.32-.65.37-.92.09-.5.09-.67c0-.4-.08-.72-.25-.98-.17-.26-.38-.46-.65-.62-.26-.15-.55-.26-.87-.32s-.62-.09-.91-.09Z"/>
        <path class="cls-4" d="M227.77,206.1c-.29,0-.51-.05-.66-.15-.15-.1-.22-.31-.22-.62,0-.37.07-.59.21-.66s.36-.11.67-.11h3.28c.29,0,.51.04.66.12.15.08.22.28.22.58,0,.37-.07.6-.21.69-.14.09-.36.14-.67.14h-3.28Z"/>
        <path class="cls-4" d="M235.75,197.54c.32-.07.72-.16,1.21-.25.48-.1.99-.18,1.52-.26.53-.08,1.05-.15,1.58-.2.53-.05,1-.08,1.43-.08,1.23,0,2.24.14,3.02.41.78.27,1.4.65,1.84,1.13.45.48.75,1.07.91,1.75.16.68.24,1.43.24,2.23v1.54c0,.13.05.25.16.34.1.1.23.17.38.23.15.06.31.1.49.13.18.03.33.04.47.04h.42c.3,0,.52.04.67.12.15.08.22.28.22.58,0,.37-.07.6-.21.69-.14.09-.37.14-.67.14h-.24c-.43,0-.81-.07-1.14-.21s-.62-.38-.85-.74c-.18.24-.45.45-.83.65s-.95.3-1.71.3h-13.6c-.29,0-.51-.05-.66-.15-.15-.1-.22-.31-.22-.62,0-.37.07-.59.21-.66s.36-.11.67-.11h2.88v-14.37h1.85v7.35ZM245.65,202.65c0-.75-.07-1.4-.2-1.95-.13-.55-.37-1.01-.73-1.38-.35-.37-.83-.64-1.42-.82s-1.35-.28-2.28-.28c-.44,0-.9.02-1.38.07s-.95.1-1.43.18-.93.15-1.35.23c-.42.08-.8.17-1.12.25v5.61h8.47c.6,0,.99-.14,1.17-.41.18-.27.26-.71.26-1.33v-.18Z"/>
        <path class="cls-4" d="M249.41,206.1c-.29,0-.51-.05-.66-.15-.15-.1-.22-.31-.22-.62,0-.37.07-.59.21-.66s.36-.11.67-.11h3.06c-.25-.6-.44-1.2-.56-1.78-.12-.59-.19-1.13-.19-1.63,0-.66.11-1.27.32-1.83.21-.56.54-1.04.98-1.44.44-.4,1-.72,1.67-.96.67-.23,1.47-.35,2.4-.35.7,0,1.32.02,1.84.07s1.02.08,1.49.11v9.35h-11ZM258.57,204.56v-6.45c-.13-.01-.27-.03-.42-.04-.15-.01-.28-.02-.4-.02-1.35,0-2.37.23-3.07.69-.7.46-1.04,1.26-1.04,2.39,0,.25.04.65.12,1.19.08.54.32,1.29.71,2.24h4.09ZM253.92,193.82c0-.32.11-.6.34-.82s.5-.34.83-.34.6.11.83.34.34.5.34.82-.11.6-.34.83c-.23.23-.5.34-.83.34s-.6-.11-.83-.34c-.23-.23-.34-.5-.34-.83ZM256.78,193.82c0-.32.11-.6.34-.82s.5-.34.83-.34.6.11.83.34c.23.23.34.5.34.82s-.11.6-.34.83-.5.34-.83.34-.6-.11-.83-.34c-.23-.23-.34-.5-.34-.83Z"/>
        <path class="cls-4" d="M271.37,196.75h1.85v7.81h2.04c.29,0,.52.04.66.12.15.08.22.28.22.58,0,.37-.07.6-.21.69-.14.09-.37.14-.68.14h-2.06c-.03.57-.11,1.09-.24,1.56-.13.47-.35.87-.65,1.21-.3.34-.71.6-1.22.79-.51.19-1.15.29-1.91.29h-.4v-1.54h.24c.9,0,1.52-.21,1.85-.64.33-.43.5-1.11.5-2.05v-8.98Z"/>
        <path class="cls-4" d="M275.24,206.1c-.29,0-.51-.05-.66-.15-.15-.1-.22-.31-.22-.62,0-.37.07-.59.21-.66s.36-.11.67-.11h3.28c.29,0,.51.04.66.12.15.08.22.28.22.58,0,.37-.07.6-.21.69-.14.09-.36.14-.67.14h-3.28Z"/>
        <path class="cls-4" d="M278.5,206.1c-.29,0-.51-.05-.66-.15-.15-.1-.22-.31-.22-.62,0-.37.07-.59.21-.66s.36-.11.67-.11h3.06c-.25-.6-.44-1.2-.56-1.78-.12-.59-.19-1.13-.19-1.63,0-.66.11-1.27.32-1.83.21-.56.54-1.04.98-1.44.44-.4,1-.72,1.67-.96.67-.23,1.47-.35,2.4-.35.7,0,1.32.02,1.84.07s1.02.08,1.49.11v9.35h-11ZM287.65,204.56v-6.45c-.13-.01-.27-.03-.42-.04-.15-.01-.28-.02-.4-.02-1.35,0-2.37.23-3.07.69-.7.46-1.04,1.26-1.04,2.39,0,.25.04.65.12,1.19.08.54.32,1.29.71,2.24h4.09ZM284.88,193.82c0-.32.11-.6.34-.82s.5-.34.83-.34.6.11.83.34.34.5.34.82-.11.6-.34.83c-.23.23-.5.34-.83.34s-.6-.11-.83-.34c-.23-.23-.34-.5-.34-.83Z"/>
        <path class="cls-4" d="M300.92,206.1c-.03.6-.12,1.14-.28,1.62-.16.48-.41.88-.75,1.21s-.79.58-1.33.76-1.23.26-2.03.26h-2.68v-1.47h2.68c.88,0,1.51-.19,1.9-.56s.61-.98.65-1.82h-1.3c-1.16,0-2.09-.15-2.79-.46-.7-.31-1.25-.7-1.64-1.17s-.65-.98-.78-1.53c-.13-.55-.2-1.07-.2-1.55,0-.72.11-1.37.34-1.96.23-.59.58-1.09,1.05-1.52.48-.43,1.09-.76,1.83-.99s1.65-.35,2.7-.35c.38,0,.82.02,1.31.07s.94.08,1.35.11v7.81h2.04c.29,0,.52.04.67.12.15.08.22.28.22.58,0,.37-.07.6-.21.69-.14.09-.37.14-.68.14h-2.06ZM294.21,201.39c0,.59.09,1.08.26,1.49.17.4.43.73.76.98.33.25.72.43,1.17.54.45.11.96.17,1.53.17h1.16v-6.49c-.12-.01-.24-.03-.37-.03-.13,0-.26-.01-.39-.01-.42,0-.88.03-1.36.08-.48.05-.93.19-1.34.42-.41.23-.75.56-1.02,1.01-.27.45-.41,1.07-.41,1.86Z"/>
        <path class="cls-4" d="M302.98,206.1c-.29,0-.51-.05-.66-.15-.15-.1-.22-.31-.22-.62,0-.51.29-.77.88-.77h2.75v-7.81h1.85v9.35h-4.6ZM304.02,193.82c0-.32.11-.6.34-.82s.5-.34.83-.34.6.11.83.34c.23.23.34.5.34.82s-.11.6-.34.83-.5.34-.83.34-.6-.11-.83-.34c-.23-.23-.34-.5-.34-.83ZM306.88,193.82c0-.32.11-.6.34-.82.23-.23.5-.34.82-.34s.6.11.83.34.34.5.34.82-.11.6-.34.83c-.23.23-.5.34-.83.34s-.6-.11-.82-.34c-.23-.23-.34-.5-.34-.83Z"/>
        <path class="cls-4" d="M243.71,221.75h1.85v8.95c0,.62-.06,1.18-.18,1.71s-.33.97-.63,1.34-.71.67-1.24.88c-.53.21-1.2.32-2,.32h-.4v-1.54h.24c.9,0,1.52-.21,1.85-.64.33-.43.5-1.11.5-2.05v-8.98Z"/>
        <path class="cls-4" d="M253.71,230.26c0,.37-.07.6-.22.69-.15.09-.37.14-.68.14h-.84c-.94,0-1.69-.23-2.27-.69s-.86-1.24-.86-2.34v-12.87h1.85v12.61c0,.57.09,1.01.29,1.31.19.3.61.45,1.25.45h.57c.29,0,.52.04.67.12.15.08.23.28.23.58Z"/>
        <path class="cls-4" d="M252.81,231.1c-.29,0-.51-.05-.66-.15-.15-.1-.22-.31-.22-.62,0-.37.07-.59.21-.66s.36-.11.67-.11h3.28c.29,0,.51.04.66.12.15.08.22.28.22.58,0,.37-.07.6-.21.69-.14.09-.36.14-.67.14h-3.28Z"/>
        <path class="cls-4" d="M256.07,231.1c-.29,0-.51-.05-.66-.15-.15-.1-.22-.31-.22-.62,0-.37.07-.59.21-.66s.36-.11.67-.11h3.28c.29,0,.51.04.66.12.15.08.22.28.22.58,0,.37-.07.6-.21.69-.14.09-.36.14-.67.14h-3.28Z"/>
        <path class="cls-4" d="M259.33,231.1c-.29,0-.51-.05-.66-.15-.15-.1-.22-.31-.22-.62,0-.37.07-.59.21-.66s.36-.11.67-.11h1.54c.6,0,.99-.14,1.17-.41.18-.27.26-.71.26-1.33v-6.07h1.85v7.06c0,.13.05.25.15.34.1.1.23.17.39.23.15.06.32.1.49.13.18.03.33.04.46.04h.57c.29,0,.51.04.66.12.15.08.22.28.22.58,0,.37-.07.6-.21.69-.14.09-.36.14-.67.14h-.4c-.43,0-.8-.07-1.13-.21-.33-.14-.61-.38-.85-.74-.18.24-.45.45-.84.65s-.95.3-1.72.3h-1.96ZM260.51,233.87c0-.32.11-.6.34-.83.23-.23.5-.34.82-.34s.6.11.83.34c.23.23.34.5.34.83s-.11.6-.34.82-.5.34-.83.34-.6-.11-.82-.34c-.23-.23-.34-.5-.34-.82ZM263.37,233.87c0-.32.11-.6.34-.83.23-.23.5-.34.83-.34s.6.11.83.34c.23.23.34.5.34.83s-.11.6-.34.82-.5.34-.83.34-.6-.11-.83-.34-.34-.5-.34-.82Z"/>
        <path class="cls-4" d="M266.21,231.1c-.59,0-.88-.26-.88-.77,0-.34.07-.55.21-.64s.36-.13.67-.13h4.82c-.62-.5-1.12-.98-1.51-1.44-.39-.46-.69-.89-.91-1.29-.22-.4-.37-.76-.44-1.1-.07-.34-.11-.64-.11-.9,0-.54.12-1.02.35-1.43.23-.41.55-.75.96-1.03.4-.28.88-.48,1.44-.62.56-.13,1.17-.2,1.83-.2s1.27.06,1.83.19c.56.12,1.04.32,1.45.58.41.26.73.6.96,1,.23.4.34.88.34,1.44s-.21,1.27-.63,2.1c-.42.83-1.2,1.73-2.34,2.7h4.2c.29,0,.51.04.66.12.15.08.22.28.22.58,0,.37-.07.6-.21.69-.14.09-.36.14-.67.14h-2.66c-.48,0-.9-.02-1.23-.05-.34-.04-.62-.08-.85-.14-.23-.06-.42-.12-.58-.19-.16-.07-.32-.12-.46-.17-.15.04-.3.1-.47.17-.17.07-.37.13-.62.19-.24.06-.54.11-.89.14-.35.04-.79.05-1.32.05h-3.15ZM272.63,223.05c-.37,0-.71.04-1.04.12-.33.08-.62.21-.86.37-.24.17-.43.38-.57.65-.14.26-.21.58-.21.95,0,.16.02.36.07.6.04.24.16.52.34.84.18.32.45.68.81,1.09.36.41.85.87,1.49,1.36.57-.44,1.03-.86,1.39-1.26s.62-.78.81-1.12c.19-.34.31-.65.37-.92s.09-.5.09-.67c0-.4-.08-.72-.25-.98-.17-.26-.39-.46-.65-.62-.26-.15-.55-.26-.87-.32s-.62-.09-.91-.09ZM271.54,218.82c0-.32.11-.6.34-.82s.5-.34.83-.34.6.11.83.34c.23.23.34.5.34.82s-.11.6-.34.83-.5.34-.83.34-.6-.11-.83-.34c-.23-.23-.34-.5-.34-.83Z"/>
        <path class="cls-4" d="M278.42,231.1c-.29,0-.51-.05-.66-.15-.15-.1-.22-.31-.22-.62,0-.37.07-.59.21-.66s.36-.11.67-.11h2.75v-14.37h1.85v15.91h-4.6Z"/>
        <path class="cls-4" d="M288.5,215.19v15.91h-1.85v-15.91h1.85Z"/>
      </g>
      <g>
        <path class="cls-4" d="M51.46,233.5v-7.81h1.85v9.35h-14.63c-.94,0-1.7-.23-2.28-.69-.58-.46-.87-1.24-.87-2.34v-4.33h1.85v4.07c0,.5.1.92.3,1.25.2.34.62.51,1.27.51h12.52ZM43.52,237.81c0-.32.11-.6.34-.83.23-.23.5-.34.82-.34s.6.11.83.34c.23.23.34.5.34.83s-.11.6-.34.82-.5.34-.83.34-.6-.11-.82-.34c-.23-.23-.34-.5-.34-.82Z"/>
        <path class="cls-4" d="M60.33,237.41c.88,0,1.51-.19,1.9-.56s.61-.98.65-1.82h-1.3c-1.16,0-2.09-.15-2.79-.46-.7-.31-1.25-.7-1.64-1.17s-.65-.98-.78-1.53c-.13-.55-.2-1.07-.2-1.55,0-.72.11-1.37.34-1.96.23-.59.58-1.09,1.05-1.52.48-.43,1.09-.76,1.83-.99s1.65-.35,2.7-.35c.38,0,.81.02,1.28.07s.93.08,1.37.11v8.69c0,.7-.07,1.33-.2,1.89-.13.56-.36,1.03-.68,1.42-.33.39-.78.69-1.36.89-.58.21-1.31.31-2.19.31h-2.68v-1.47h2.68ZM58.02,230.33c0,.59.09,1.08.26,1.49.17.4.43.73.76.98.33.25.72.43,1.17.54.45.11.96.17,1.53.17h1.16v-6.49c-.12-.01-.24-.03-.37-.03-.13,0-.26-.01-.39-.01-.42,0-.88.03-1.36.08-.48.05-.93.19-1.34.42-.41.23-.75.56-1.02,1.01-.27.45-.41,1.07-.41,1.86Z"/>
        <path class="cls-4" d="M72.93,234.2c0,.37-.07.6-.22.69-.15.09-.37.14-.68.14h-.84c-.94,0-1.69-.23-2.27-.69s-.86-1.24-.86-2.34v-12.87h1.85v12.61c0,.57.09,1.01.29,1.31.19.3.61.45,1.25.45h.57c.29,0,.52.04.67.12.15.08.23.28.23.58Z"/>
        <path class="cls-4" d="M79.33,233.5c-.23-.37-.4-.78-.5-1.25-.09-.47-.17-.95-.23-1.43-.06-.48-.12-.95-.2-1.41s-.21-.86-.41-1.22c-.2-.36-.48-.65-.84-.87-.36-.22-.85-.33-1.48-.33-.57,0-1.06.05-1.47.14-.41.1-.73.18-.97.25v-1.39c.26-.12.63-.23,1.09-.34.46-.11,1-.17,1.62-.17.95,0,1.71.15,2.28.45.56.3,1,.69,1.32,1.17s.53,1.01.65,1.61.22,1.19.3,1.78c.08.59.17,1.16.28,1.68.1.53.29.97.57,1.32h1.3c.29,0,.51.04.66.12.15.08.22.28.22.58,0,.37-.07.6-.21.69-.14.09-.36.14-.67.14h-10.6c-.59,0-.88-.29-.88-.88,0-.26.07-.44.21-.53s.36-.13.67-.13h7.3ZM74.58,237.77c0-.32.11-.6.34-.82.23-.23.5-.34.83-.34s.6.11.83.34c.23.23.34.5.34.82s-.11.6-.34.83-.5.34-.83.34-.6-.11-.83-.34-.34-.5-.34-.83Z"/>
        <path class="cls-4" d="M82.63,235.04c-.29,0-.51-.05-.66-.15-.15-.1-.22-.31-.22-.62,0-.37.07-.59.21-.66s.36-.11.67-.11h1.54c.6,0,.99-.14,1.17-.41.18-.27.26-.71.26-1.33v-6.07h1.85v7.06c0,.13.05.25.15.34.1.1.23.17.39.23.15.06.32.1.49.13.18.03.33.04.46.04h.57c.29,0,.51.04.66.12.15.08.22.28.22.58,0,.37-.07.6-.21.69-.14.09-.36.14-.67.14h-.4c-.43,0-.8-.07-1.13-.21-.33-.14-.61-.38-.85-.74-.18.24-.45.45-.84.65s-.95.3-1.72.3h-1.96ZM84,222.76c0-.32.11-.6.34-.82s.5-.34.83-.34.6.11.83.34c.23.23.34.5.34.82s-.11.6-.34.83c-.23.23-.5.34-.83.34s-.6-.11-.83-.34c-.23-.23-.34-.5-.34-.83ZM86.86,222.76c0-.32.11-.6.34-.82.23-.23.5-.34.82-.34s.6.11.83.34.34.5.34.82-.11.6-.34.83c-.23.23-.5.34-.83.34s-.6-.11-.82-.34c-.23-.23-.34-.5-.34-.83Z"/>
        <path class="cls-4" d="M89.52,235.04c-.29,0-.51-.05-.66-.15-.15-.1-.22-.31-.22-.62,0-.37.07-.59.21-.66s.36-.11.67-.11h2.75v-14.37h1.85v15.91h-4.6Z"/>
        <path class="cls-4" d="M99.6,219.13v15.91h-1.85v-15.91h1.85Z"/>
        <path class="cls-4" d="M120.74,234.2c0,.37-.07.6-.21.69-.14.09-.36.14-.67.14h-.88c-.62,0-1.15-.09-1.59-.28-.45-.18-.79-.49-1.04-.91h-2.04c-1.74,0-3.03-.33-3.87-1-.84-.67-1.26-1.65-1.26-2.94,0-1.53.47-2.64,1.43-3.34s2.27-1.06,3.95-1.06c.19,0,.43,0,.72.02.29.01.59.03.9.05.31.02.6.05.89.08s.53.06.74.09v5.98c0,.5.1.92.3,1.25.2.34.62.51,1.26.51h.51c.29,0,.51.04.66.12.15.08.22.28.22.58ZM111.08,229.74c0,.94.31,1.61.92,2.02.62.41,1.5.62,2.64.62h1.3v-5.3c-.35-.04-.67-.07-.96-.09s-.47-.02-.54-.02c-1.03,0-1.84.21-2.45.64-.61.42-.91,1.14-.91,2.13ZM111.28,222.76c0-.32.11-.6.34-.82.23-.23.5-.34.82-.34s.6.11.83.34.34.5.34.82-.11.6-.34.83c-.23.23-.5.34-.83.34s-.6-.11-.82-.34c-.23-.23-.34-.5-.34-.83ZM114.14,222.76c0-.32.11-.6.34-.82s.5-.34.83-.34.6.11.83.34c.23.23.34.5.34.82s-.11.6-.34.83-.5.34-.83.34-.6-.11-.83-.34c-.23-.23-.34-.5-.34-.83Z"/>
        <path class="cls-4" d="M130.73,235.04h-10.85c-.59,0-.88-.29-.88-.88,0-.44.29-.66.88-.66h2.99c-.19-.42-.38-.96-.57-1.59-.19-.64-.29-1.31-.29-2.01,0-.6.1-1.17.3-1.7.2-.54.5-1,.91-1.4.41-.4.93-.71,1.55-.95.62-.23,1.36-.35,2.21-.35.42,0,.88.02,1.38.07.49.04.88.08,1.15.11v1.47c-.15-.01-.42-.04-.83-.09s-.86-.07-1.38-.07c-.44,0-.87.05-1.28.17-.41.11-.77.29-1.09.54-.32.25-.57.58-.75.98-.18.4-.28.9-.28,1.49,0,.31.03.62.09.93s.14.62.23.91c.09.29.2.57.31.83.11.26.21.48.3.67h5.87v1.54Z"/>
        <path class="cls-4" d="M134.42,225.69h1.85v7.81h2.04c.29,0,.52.04.66.12.15.08.22.28.22.58,0,.37-.07.6-.21.69-.14.09-.37.14-.68.14h-2.06c-.03.57-.11,1.09-.24,1.56-.13.47-.35.87-.65,1.21-.3.34-.71.6-1.22.79-.51.19-1.15.29-1.91.29h-.4v-1.54h.24c.9,0,1.52-.21,1.85-.64.33-.43.5-1.11.5-2.05v-8.98Z"/>
        <path class="cls-4" d="M138.32,235.04c-.29,0-.51-.05-.66-.15-.15-.1-.22-.31-.22-.62,0-.37.07-.59.21-.66.14-.07.36-.11.67-.11h3.85v-5.83h1.85v5.83h3.92v-5.83h1.85v5.83h3.74v-7.81h1.85v9.35h-17.05Z"/>
      </g>
      <g>
        <path class="cls-1" d="M83.72,319.68c-22.35,0-43.38-8.71-59.2-24.51-15.81-15.81-24.51-36.83-24.51-59.2s8.71-43.38,24.51-59.2c15.82-15.81,36.85-24.51,59.2-24.51,20.36,0,39.97,7.39,55.24,20.8.77.68.85,1.85.17,2.62-.68.77-1.85.85-2.62.17-14.59-12.82-33.33-19.88-52.79-19.88-21.36,0-41.45,8.32-56.57,23.43-15.1,15.12-23.42,35.21-23.42,56.57s8.32,41.47,23.42,56.57c15.12,15.11,35.21,23.42,56.57,23.42,15.21,0,29.99-4.27,42.74-12.36,22.42-14.2,35.05-41.95,47.28-68.79,12.34-27.1,25.1-55.11,48.04-69.63,13.37-8.46,28.84-12.93,44.73-12.93,22.37,0,43.39,8.71,59.2,24.51,5.91,5.91,10.88,12.63,14.77,19.97.48.91.14,2.03-.77,2.51-.91.48-2.03.13-2.51-.77-3.72-7.02-8.47-13.44-14.12-19.08-15.11-15.11-35.2-23.42-56.57-23.42-15.18,0-29.97,4.27-42.74,12.36-22.01,13.92-34.53,41.43-46.65,68.03-12.45,27.34-25.32,55.6-48.67,70.39-13.35,8.46-28.82,12.93-44.73,12.93Z"/>
        <path class="cls-2" d="M141.22,170.18c2.29,2.08,2.45,5.61.38,7.9-2.08,2.29-5.61,2.45-7.9.38-2.29-2.08-2.45-5.61-.38-7.9,2.08-2.29,5.61-2.45,7.9-.38Z"/>
        <path class="cls-2" d="M333.66,199.91c1.39,2.76,4.76,3.86,7.51,2.47,2.76-1.39,3.86-4.76,2.47-7.51-1.39-2.76-4.76-3.86-7.51-2.47-2.76,1.39-3.86,4.76-2.47,7.51Z"/>
      </g>
      <g>
        <path class="cls-3" d="M447.32,319.68c-20.35,0-39.97-7.39-55.23-20.81-.77-.68-.85-1.85-.17-2.62.68-.77,1.85-.85,2.62-.17,14.59,12.82,33.33,19.88,52.78,19.88,21.36,0,41.45-8.32,56.57-23.43,15.1-15.12,23.42-35.21,23.42-56.57s-8.32-41.47-23.42-56.57c-15.12-15.11-35.21-23.42-56.57-23.42-15.21,0-29.99,4.27-42.73,12.36-22.43,14.2-35.06,41.95-47.28,68.79-12.34,27.09-25.1,55.11-48.05,69.62-13.35,8.47-28.81,12.95-44.72,12.95-22.37,0-43.39-8.71-59.2-24.51-7.4-7.4-13.28-16-17.47-25.55-.41-.94.02-2.04.96-2.45.94-.41,2.04.02,2.45.96,4,9.13,9.62,17.34,16.69,24.41,15.11,15.11,35.2,23.42,56.57,23.42,15.2,0,29.97-4.28,42.73-12.37,22.02-13.92,34.54-41.43,46.66-68.02,12.45-27.33,25.32-55.6,48.68-70.39,13.34-8.46,28.8-12.93,44.72-12.93,22.35,0,43.38,8.71,59.2,24.51,15.81,15.81,24.51,36.83,24.51,59.2s-8.71,43.38-24.51,59.2c-15.82,15.81-36.85,24.51-59.2,24.51Z"/>
        <path class="cls-2" d="M184.53,271.23c-1.16-2.86.21-6.12,3.07-7.29,2.86-1.16,6.12.21,7.29,3.07,1.16,2.86-.21,6.12-3.07,7.29-2.86,1.16-6.12-.21-7.29-3.07Z"/>
        <path class="cls-2" d="M397.35,293.48c-2.29-2.08-5.82-1.91-7.9.38-2.08,2.29-1.91,5.82.38,7.9,2.29,2.08,5.82,1.91,7.9-.38,2.08-2.29,1.91-5.82-.38-7.9Z"/>
      </g>
      <g>
        <path class="cls-4" d="M396.84,256.85v-11.07l-4.34,11.07h-1.46l-4.36-11.08v11.08h-1.43v-12.29h2.55l4.05,10.39,3.94-10.39h2.55v12.29h-1.5Z"/>
        <path class="cls-4" d="M406.84,256.85c-.03-.18-.07-.38-.09-.6-.03-.22-.05-.42-.06-.6-.36.52-.78.88-1.26,1.09s-1.03.31-1.65.31c-.4,0-.78-.05-1.14-.15s-.68-.26-.96-.47c-.28-.21-.5-.47-.66-.79-.16-.32-.25-.7-.25-1.14,0-.65.16-1.16.48-1.54.32-.38.72-.67,1.2-.87.48-.2,1.01-.33,1.59-.38.58-.06,1.13-.08,1.65-.08.16,0,.31,0,.45,0,.14,0,.27.01.4.03v-.51c0-.66-.14-1.17-.42-1.53-.28-.36-.77-.54-1.47-.54-.53,0-.95.11-1.25.33-.3.22-.48.62-.54,1.18h-1.46c.02-.46.13-.86.31-1.17s.43-.57.72-.77c.29-.19.63-.33,1-.42s.77-.13,1.17-.13c1.1,0,1.92.23,2.46.7.54.46.81,1.26.81,2.38v3.16c0,.57.03,1.08.09,1.54s.12.79.18.98h-1.31ZM406.53,252.55c-.18-.02-.32-.03-.42-.03h-.34c-.33,0-.7.02-1.1.05-.41.03-.79.12-1.15.25-.36.13-.65.32-.89.57-.24.25-.36.59-.36,1.04,0,.26.05.49.15.7s.24.37.42.51c.18.14.38.24.6.31.23.07.46.1.71.1.54,0,.97-.1,1.28-.3.31-.2.55-.46.71-.79.16-.33.27-.7.31-1.12s.07-.84.07-1.27Z"/>
        <path class="cls-4" d="M410.65,246.08v-1.51h1.67v1.51h-1.67ZM410.73,256.85v-8.58h1.5v8.58h-1.5Z"/>
        <path class="cls-4" d="M420.87,256.85v-4.76c0-.37-.02-.73-.05-1.06-.03-.33-.12-.63-.25-.88-.14-.25-.34-.46-.6-.61-.27-.15-.63-.23-1.08-.23s-.85.1-1.16.29c-.31.19-.55.44-.72.75-.18.31-.3.65-.37,1.05-.07.39-.11.78-.11,1.18v4.28h-1.5v-6.38c0-.18,0-.38,0-.59,0-.21-.01-.41-.02-.61,0-.2-.01-.38-.02-.56,0-.18,0-.33,0-.45h1.48l.05,1.38c.35-.5.75-.87,1.2-1.11s.98-.37,1.61-.37c1.12,0,1.91.29,2.37.88.46.59.69,1.41.69,2.47v5.34h-1.5Z"/>
        <path class="cls-4" d="M427.73,256.94c-.69,0-1.21-.15-1.56-.46s-.53-.82-.53-1.53v-5.64h-1.68v-1.04h1.68v-1.67l1.5-.63v2.29h1.92v1.04h-1.92v5.05c0,.26.01.48.03.66.02.18.08.33.16.44s.2.2.36.25c.15.05.36.08.62.08.14,0,.27,0,.39-.03.12-.02.26-.04.41-.06v1.14c-.48.07-.93.1-1.38.1Z"/>
        <path class="cls-4" d="M431.81,252.84v.17c0,.4.05.78.16,1.14.11.36.27.69.48.97.21.28.48.51.81.67.32.16.7.25,1.13.25.61,0,1.11-.17,1.5-.52s.62-.82.71-1.44h1.43c-.17,1.01-.59,1.75-1.27,2.24-.68.48-1.51.72-2.48.72-.67,0-1.25-.1-1.74-.31-.49-.21-.9-.51-1.23-.89s-.58-.84-.74-1.37c-.16-.53-.25-1.11-.25-1.75s.08-1.24.25-1.8c.16-.55.41-1.04.75-1.45.33-.41.76-.74,1.27-.98.51-.24,1.12-.36,1.82-.36s1.31.13,1.78.39.86.6,1.14,1.03c.28.43.48.93.59,1.5s.17,1.17.17,1.79h-6.27ZM436.61,251.84c0-.35-.04-.69-.13-1.01-.09-.33-.22-.61-.41-.86-.19-.25-.42-.45-.71-.6s-.63-.23-1.01-.23-.74.07-1.04.22c-.29.15-.54.35-.75.6-.2.25-.37.54-.48.87-.12.33-.2.66-.23,1.01h4.76Z"/>
        <path class="cls-4" d="M446.09,256.85v-4.76c0-.37-.02-.73-.05-1.06-.03-.33-.12-.63-.25-.88-.14-.25-.34-.46-.6-.61-.27-.15-.63-.23-1.08-.23s-.85.1-1.16.29c-.31.19-.55.44-.72.75-.18.31-.3.65-.37,1.05-.07.39-.11.78-.11,1.18v4.28h-1.5v-6.38c0-.18,0-.38,0-.59,0-.21-.01-.41-.02-.61,0-.2-.01-.38-.02-.56,0-.18,0-.33,0-.45h1.48l.05,1.38c.35-.5.75-.87,1.2-1.11s.98-.37,1.61-.37c1.12,0,1.91.29,2.37.88.46.59.69,1.41.69,2.47v5.34h-1.5Z"/>
        <path class="cls-4" d="M455.77,256.85c-.03-.18-.07-.38-.09-.6-.03-.22-.05-.42-.06-.6-.36.52-.78.88-1.26,1.09s-1.03.31-1.65.31c-.4,0-.78-.05-1.14-.15s-.68-.26-.96-.47c-.28-.21-.5-.47-.66-.79-.16-.32-.25-.7-.25-1.14,0-.65.16-1.16.48-1.54.32-.38.72-.67,1.2-.87.48-.2,1.01-.33,1.59-.38.58-.06,1.13-.08,1.65-.08.16,0,.31,0,.45,0,.14,0,.27.01.4.03v-.51c0-.66-.14-1.17-.42-1.53-.28-.36-.77-.54-1.47-.54-.53,0-.95.11-1.25.33-.3.22-.48.62-.54,1.18h-1.46c.02-.46.13-.86.31-1.17s.43-.57.72-.77c.29-.19.63-.33,1-.42s.77-.13,1.17-.13c1.1,0,1.92.23,2.46.7.54.46.81,1.26.81,2.38v3.16c0,.57.03,1.08.09,1.54s.12.79.18.98h-1.31ZM455.46,252.55c-.18-.02-.32-.03-.42-.03h-.34c-.33,0-.7.02-1.1.05-.41.03-.79.12-1.15.25-.36.13-.65.32-.89.57-.24.25-.36.59-.36,1.04,0,.26.05.49.15.7s.24.37.42.51c.18.14.38.24.6.31.23.07.46.1.71.1.54,0,.97-.1,1.28-.3.31-.2.55-.46.71-.79.16-.33.27-.7.31-1.12s.07-.84.07-1.27Z"/>
        <path class="cls-4" d="M465.51,256.85v-4.76c0-.37-.02-.73-.05-1.06-.03-.33-.12-.63-.25-.88-.14-.25-.34-.46-.6-.61-.27-.15-.63-.23-1.08-.23s-.85.1-1.16.29c-.31.19-.55.44-.72.75-.18.31-.3.65-.37,1.05-.07.39-.11.78-.11,1.18v4.28h-1.5v-6.38c0-.18,0-.38,0-.59,0-.21-.01-.41-.02-.61,0-.2-.01-.38-.02-.56,0-.18,0-.33,0-.45h1.48l.05,1.38c.35-.5.75-.87,1.2-1.11s.98-.37,1.61-.37c1.12,0,1.91.29,2.37.88.46.59.69,1.41.69,2.47v5.34h-1.5Z"/>
        <path class="cls-4" d="M476.55,255.32c-.2.39-.46.71-.78.96-.32.25-.7.44-1.12.57-.42.12-.88.19-1.37.19-.68,0-1.28-.11-1.79-.32-.52-.21-.95-.52-1.3-.9-.35-.39-.62-.85-.8-1.39-.18-.54-.27-1.13-.27-1.78s.09-1.27.27-1.84c.18-.57.45-1.06.81-1.47.36-.41.8-.74,1.33-.97.53-.23,1.14-.35,1.84-.35.97,0,1.78.25,2.41.74.63.49,1,1.25,1.09,2.27h-1.46c-.05-.61-.24-1.09-.6-1.44-.35-.35-.83-.52-1.44-.52-.51,0-.94.1-1.27.31-.34.2-.61.47-.82.8-.2.33-.35.7-.44,1.12-.09.42-.14.85-.14,1.28,0,.41.04.82.14,1.23s.24.78.45,1.11c.21.33.48.6.81.8.33.2.73.31,1.21.31.63,0,1.14-.19,1.51-.57.37-.38.58-.88.63-1.51h1.41l.05.02c-.03.51-.15.96-.35,1.34Z"/>
        <path class="cls-4" d="M479.72,252.84v.17c0,.4.05.78.16,1.14.11.36.27.69.48.97.21.28.48.51.81.67.32.16.7.25,1.13.25.61,0,1.11-.17,1.5-.52s.62-.82.71-1.44h1.43c-.17,1.01-.59,1.75-1.27,2.24-.68.48-1.51.72-2.48.72-.67,0-1.25-.1-1.74-.31-.49-.21-.9-.51-1.23-.89s-.58-.84-.74-1.37c-.16-.53-.25-1.11-.25-1.75s.08-1.24.25-1.8c.16-.55.41-1.04.75-1.45.33-.41.76-.74,1.27-.98.51-.24,1.12-.36,1.82-.36s1.31.13,1.78.39.86.6,1.14,1.03c.28.43.48.93.59,1.5s.17,1.17.17,1.79h-6.27ZM484.51,251.84c0-.35-.04-.69-.13-1.01-.09-.33-.22-.61-.41-.86-.19-.25-.42-.45-.71-.6s-.63-.23-1.01-.23-.74.07-1.04.22c-.29.15-.54.35-.75.6-.2.25-.37.54-.48.87-.12.33-.2.66-.23,1.01h4.76Z"/>
      </g>
      <g>
        <path class="cls-4" d="M45.49,256.85c-.19-.49-.31-.99-.36-1.5-.05-.51-.09-1.02-.14-1.53-.05-.45-.09-.85-.14-1.18-.05-.33-.15-.61-.31-.83-.15-.22-.38-.39-.67-.49-.3-.11-.7-.16-1.21-.16h-2.62v5.69h-1.58v-12.29h4.39c.5,0,.99.05,1.49.14s.94.25,1.33.48c.39.23.71.54.95.93s.37.89.37,1.49c0,.82-.22,1.46-.66,1.92-.44.46-1.04.79-1.79,1,.39.09.71.21.96.36.26.15.46.33.62.54.16.22.27.46.35.74s.13.58.16.91c.04.41.08.83.1,1.26.02.43.08.88.17,1.36.04.23.1.44.15.65s.14.38.25.54h-1.81ZM45.34,247.78c0-.43-.08-.78-.25-1.04-.17-.26-.38-.46-.66-.61-.27-.14-.58-.24-.92-.28-.34-.05-.69-.07-1.04-.07h-2.44v4.18h2c.39,0,.78-.02,1.17-.07.39-.05.75-.15,1.07-.3.32-.15.58-.37.78-.66.2-.28.3-.67.3-1.16Z"/>
        <path class="cls-4" d="M50.51,252.84v.17c0,.4.05.78.16,1.14.11.36.27.69.48.97.21.28.48.51.81.67.32.16.7.25,1.13.25.61,0,1.11-.17,1.5-.52s.62-.82.71-1.44h1.43c-.17,1.01-.59,1.75-1.27,2.24-.68.48-1.51.72-2.48.72-.67,0-1.25-.1-1.74-.31-.49-.21-.9-.51-1.23-.89s-.58-.84-.74-1.37c-.16-.53-.25-1.11-.25-1.75s.08-1.24.25-1.8c.16-.55.41-1.04.75-1.45.33-.41.76-.74,1.27-.98.51-.24,1.12-.36,1.82-.36s1.31.13,1.78.39.86.6,1.14,1.03c.28.43.48.93.59,1.5s.17,1.17.17,1.79h-6.27ZM55.3,251.84c0-.35-.04-.69-.13-1.01-.09-.33-.22-.61-.41-.86-.19-.25-.42-.45-.71-.6s-.63-.23-1.01-.23-.74.07-1.04.22c-.29.15-.54.35-.75.6-.2.25-.37.54-.48.87-.12.33-.2.66-.23,1.01h4.76Z"/>
        <path class="cls-4" d="M65.18,254.37c0,.49-.1.9-.31,1.24-.2.34-.47.62-.81.82-.33.21-.71.36-1.12.46s-.83.14-1.25.14c-.45,0-.88-.05-1.29-.14-.41-.1-.77-.25-1.07-.48-.31-.22-.55-.51-.72-.86-.18-.35-.26-.79-.26-1.31h1.5c.03.6.22,1.04.54,1.33s.79.42,1.38.42c.23,0,.45-.03.68-.08.23-.06.43-.14.62-.26s.34-.27.46-.45c.12-.18.18-.4.18-.66,0-.23-.05-.42-.14-.58-.1-.16-.23-.3-.4-.42s-.37-.22-.59-.3c-.23-.08-.46-.15-.71-.2l-.7-.17c-.32-.08-.63-.18-.94-.29-.31-.11-.59-.26-.83-.43-.24-.18-.44-.4-.59-.66-.15-.27-.22-.59-.22-.98,0-.44.1-.82.3-1.13s.45-.57.77-.76c.31-.2.66-.34,1.05-.42.39-.08.77-.13,1.15-.13.43,0,.83.05,1.21.14s.7.25.99.45c.28.2.51.47.67.8.16.33.26.73.28,1.21h-1.48c-.02-.52-.18-.91-.48-1.19s-.71-.41-1.22-.41c-.19,0-.39.02-.6.07-.21.05-.4.12-.57.22s-.31.24-.43.4c-.11.16-.17.36-.17.59,0,.4.18.7.54.92.36.22.79.39,1.3.51l.68.17c.37.09.72.2,1.05.32.32.12.6.28.83.47s.42.41.55.67c.14.26.2.58.2.95Z"/>
        <path class="cls-4" d="M75.39,252.43c0,.58-.08,1.14-.23,1.69-.15.55-.39,1.04-.71,1.46-.32.43-.72.77-1.19,1.03-.48.26-1.04.39-1.69.39s-1.14-.12-1.55-.36c-.41-.24-.8-.6-1.16-1.09v4.52h-1.5v-9.37c0-.4,0-.8,0-1.22,0-.41-.02-.82-.04-1.23h1.48l.05,1.48c.33-.57.73-.98,1.21-1.24.48-.26,1.05-.39,1.7-.39.62,0,1.17.12,1.63.36.46.24.84.56,1.13.95.29.4.51.86.66,1.38.14.52.21,1.06.21,1.63ZM73.81,252.54c0-.39-.04-.78-.12-1.17-.08-.4-.21-.76-.39-1.08-.18-.32-.43-.59-.74-.8-.31-.21-.69-.31-1.15-.31-.48,0-.88.1-1.21.31s-.59.47-.79.79c-.2.32-.34.69-.43,1.1-.09.41-.14.82-.14,1.22,0,.39.04.78.11,1.18s.2.77.39,1.09c.19.32.43.59.74.79.31.2.69.31,1.16.31s.9-.1,1.22-.31c.33-.2.59-.47.79-.79.2-.32.34-.69.42-1.1.08-.41.13-.82.13-1.22Z"/>
        <path class="cls-4" d="M85.37,252.52c0,.63-.09,1.23-.28,1.78-.19.55-.46,1.03-.83,1.44-.36.41-.81.73-1.33.96-.52.23-1.12.35-1.79.35s-1.29-.11-1.81-.34c-.53-.23-.97-.54-1.33-.94-.36-.4-.63-.88-.82-1.44-.19-.56-.28-1.16-.28-1.8s.1-1.24.29-1.79c.19-.54.47-1.01.83-1.4s.81-.7,1.34-.92c.53-.22,1.13-.33,1.8-.33s1.28.11,1.81.32c.52.22.96.52,1.32.91.36.39.63.86.81,1.4.18.54.27,1.15.27,1.8ZM83.79,252.53c0-.42-.05-.83-.14-1.24s-.25-.76-.46-1.08c-.21-.32-.48-.57-.82-.77-.34-.19-.75-.29-1.22-.29s-.88.1-1.22.29c-.34.19-.61.45-.82.77-.21.32-.36.68-.46,1.08-.1.4-.14.81-.14,1.24s.05.84.14,1.25c.1.42.25.79.46,1.12.21.34.48.61.82.82.33.21.75.32,1.23.32s.88-.1,1.22-.32c.33-.21.61-.49.82-.83.21-.34.37-.72.47-1.13.1-.41.14-.83.14-1.24Z"/>
        <path class="cls-4" d="M93.36,256.85v-4.76c0-.37-.02-.73-.05-1.06-.03-.33-.12-.63-.25-.88-.14-.25-.34-.46-.6-.61-.27-.15-.63-.23-1.08-.23s-.85.1-1.16.29c-.31.19-.55.44-.72.75-.18.31-.3.65-.37,1.05-.07.39-.11.78-.11,1.18v4.28h-1.5v-6.38c0-.18,0-.38,0-.59,0-.21-.01-.41-.02-.61,0-.2-.01-.38-.02-.56,0-.18,0-.33,0-.45h1.48l.05,1.38c.35-.5.75-.87,1.2-1.11s.98-.37,1.61-.37c1.12,0,1.91.29,2.37.88.46.59.69,1.41.69,2.47v5.34h-1.5Z"/>
        <path class="cls-4" d="M103.83,254.37c0,.49-.1.9-.31,1.24-.2.34-.47.62-.81.82-.33.21-.71.36-1.12.46s-.83.14-1.25.14c-.45,0-.88-.05-1.29-.14-.41-.1-.77-.25-1.07-.48-.31-.22-.55-.51-.72-.86-.18-.35-.26-.79-.26-1.31h1.5c.03.6.22,1.04.54,1.33s.79.42,1.38.42c.23,0,.45-.03.68-.08.23-.06.43-.14.62-.26s.34-.27.46-.45c.12-.18.18-.4.18-.66,0-.23-.05-.42-.14-.58-.1-.16-.23-.3-.4-.42s-.37-.22-.59-.3c-.23-.08-.46-.15-.71-.2l-.7-.17c-.32-.08-.63-.18-.94-.29-.31-.11-.59-.26-.83-.43-.24-.18-.44-.4-.59-.66-.15-.27-.22-.59-.22-.98,0-.44.1-.82.3-1.13s.45-.57.77-.76c.31-.2.66-.34,1.05-.42.39-.08.77-.13,1.15-.13.43,0,.83.05,1.21.14s.7.25.99.45c.28.2.51.47.67.8.16.33.26.73.28,1.21h-1.48c-.02-.52-.18-.91-.48-1.19s-.71-.41-1.22-.41c-.19,0-.39.02-.6.07-.21.05-.4.12-.57.22s-.31.24-.43.4c-.11.16-.17.36-.17.59,0,.4.18.7.54.92.36.22.79.39,1.3.51l.68.17c.37.09.72.2,1.05.32.32.12.6.28.83.47s.42.41.55.67c.14.26.2.58.2.95Z"/>
        <path class="cls-4" d="M106.9,252.84v.17c0,.4.05.78.16,1.14.11.36.27.69.48.97.21.28.48.51.81.67.32.16.7.25,1.13.25.61,0,1.11-.17,1.5-.52s.62-.82.71-1.44h1.43c-.17,1.01-.59,1.75-1.27,2.24-.68.48-1.51.72-2.48.72-.67,0-1.25-.1-1.74-.31-.49-.21-.9-.51-1.23-.89s-.58-.84-.74-1.37c-.16-.53-.25-1.11-.25-1.75s.08-1.24.25-1.8c.16-.55.41-1.04.75-1.45.33-.41.76-.74,1.27-.98.51-.24,1.12-.36,1.82-.36s1.31.13,1.78.39.86.6,1.14,1.03c.28.43.48.93.59,1.5s.17,1.17.17,1.79h-6.27ZM111.69,251.84c0-.35-.04-.69-.13-1.01-.09-.33-.22-.61-.41-.86-.19-.25-.42-.45-.71-.6s-.63-.23-1.01-.23-.74.07-1.04.22c-.29.15-.54.35-.75.6-.2.25-.37.54-.48.87-.12.33-.2.66-.23,1.01h4.76Z"/>
        <path class="cls-4" d="M122.89,256.94c-.69,0-1.21-.15-1.56-.46s-.53-.82-.53-1.53v-5.64h-1.68v-1.04h1.68v-1.67l1.5-.63v2.29h1.92v1.04h-1.92v5.05c0,.26.01.48.03.66.02.18.08.33.16.44s.2.2.36.25c.15.05.36.08.62.08.14,0,.27,0,.39-.03.12-.02.26-.04.41-.06v1.14c-.48.07-.93.1-1.38.1Z"/>
        <path class="cls-4" d="M126.02,246.08v-1.51h1.67v1.51h-1.67ZM126.1,256.85v-8.58h1.5v8.58h-1.5Z"/>
        <path class="cls-4" d="M141.78,256.85v-5.07c0-.35-.03-.68-.08-.98-.06-.3-.16-.56-.31-.78-.15-.22-.35-.4-.6-.53-.25-.13-.58-.2-.98-.2-.43,0-.79.07-1.07.22-.28.15-.51.35-.68.6-.17.25-.29.54-.37.88-.07.34-.11.7-.11,1.09v4.76h-1.5v-4.98c0-.35-.03-.68-.08-.99-.05-.31-.15-.58-.29-.82-.14-.23-.34-.42-.6-.55-.25-.14-.59-.2-.99-.2s-.74.08-1.02.24-.52.37-.7.62c-.18.25-.31.55-.4.89-.08.34-.13.69-.13,1.04v4.76h-1.5v-5.64c0-.97-.02-1.96-.05-2.94h1.48l.05,1.43c.61-1.02,1.52-1.53,2.72-1.53.68,0,1.24.14,1.68.41s.79.73,1.05,1.36c.6-1.18,1.59-1.77,2.98-1.77.6,0,1.09.09,1.48.28.38.19.69.44.91.77.22.32.37.71.46,1.16s.13.93.13,1.45v5.03h-1.5Z"/>
        <path class="cls-4" d="M146.88,252.84v.17c0,.4.05.78.16,1.14.11.36.27.69.48.97.21.28.48.51.81.67.32.16.7.25,1.13.25.61,0,1.11-.17,1.5-.52s.62-.82.71-1.44h1.43c-.17,1.01-.59,1.75-1.27,2.24-.68.48-1.51.72-2.48.72-.67,0-1.25-.1-1.74-.31-.49-.21-.9-.51-1.23-.89s-.58-.84-.74-1.37c-.16-.53-.25-1.11-.25-1.75s.08-1.24.25-1.8c.16-.55.41-1.04.75-1.45.33-.41.76-.74,1.27-.98.51-.24,1.12-.36,1.82-.36s1.31.13,1.78.39.86.6,1.14,1.03c.28.43.48.93.59,1.5s.17,1.17.17,1.79h-6.27ZM151.67,251.84c0-.35-.04-.69-.13-1.01-.09-.33-.22-.61-.41-.86-.19-.25-.42-.45-.71-.6s-.63-.23-1.01-.23-.74.07-1.04.22c-.29.15-.54.35-.75.6-.2.25-.37.54-.48.87-.12.33-.2.66-.23,1.01h4.76Z"/>
      </g>
      <g>
        <path class="cls-4" d="M225.64,252.02c0,.65-.14,1.2-.41,1.66-.27.46-.62.83-1.05,1.12s-.92.5-1.48.63c-.56.13-1.11.2-1.67.2s-1.12-.06-1.62-.19c-.5-.12-.95-.33-1.34-.6-.39-.28-.71-.63-.95-1.07-.24-.44-.39-.97-.43-1.61h1.65c.02.4.11.73.26,1.01s.35.51.6.69c.25.18.54.31.86.4.32.08.67.13,1.03.13.34,0,.68-.04,1.03-.12.35-.08.66-.21.94-.38.28-.18.51-.4.69-.67s.26-.61.26-1c0-.32-.07-.59-.2-.82-.14-.23-.31-.43-.54-.6-.22-.17-.48-.31-.77-.43-.29-.12-.6-.23-.92-.33l-1.05-.32c-.44-.14-.87-.29-1.29-.45-.42-.17-.79-.37-1.12-.62-.33-.25-.59-.55-.79-.92-.2-.36-.3-.81-.3-1.34,0-.61.12-1.13.37-1.55.25-.42.58-.77.99-1.04.41-.27.87-.47,1.39-.59.52-.12,1.04-.19,1.57-.19s1.01.05,1.49.15c.48.1.91.27,1.28.52.37.24.68.56.91.96.23.4.35.89.37,1.48h-1.62c-.03-.35-.12-.65-.25-.9-.14-.25-.31-.45-.54-.6-.22-.15-.47-.26-.76-.33-.28-.06-.58-.09-.9-.09s-.64.04-.96.11c-.32.07-.61.19-.87.36-.25.17-.46.38-.62.64s-.24.57-.24.94c0,.27.06.51.2.72.13.21.3.39.5.54.2.15.43.28.68.39.25.11.49.2.71.28l1.39.46c.44.15.87.3,1.29.47s.79.37,1.12.62c.33.25.6.56.8.93.2.37.31.83.31,1.39Z"/>
        <path class="cls-4" d="M235.97,251.04c0,.58-.08,1.14-.23,1.69-.15.55-.39,1.04-.71,1.46-.32.43-.72.77-1.19,1.03-.48.26-1.04.39-1.69.39s-1.14-.12-1.55-.36c-.41-.24-.8-.6-1.16-1.09v4.52h-1.5v-9.37c0-.4,0-.8,0-1.22,0-.41-.02-.82-.04-1.23h1.48l.05,1.48c.33-.57.73-.98,1.21-1.24s1.05-.39,1.7-.39c.62,0,1.17.12,1.63.36.46.24.84.56,1.13.95.29.4.51.86.66,1.38.14.52.21,1.07.21,1.63ZM234.39,251.14c0-.39-.04-.78-.12-1.17-.08-.4-.21-.76-.39-1.08-.18-.32-.43-.59-.74-.8s-.69-.31-1.15-.31c-.48,0-.88.1-1.21.31s-.59.47-.79.79c-.2.32-.34.69-.43,1.1-.09.41-.14.82-.14,1.22,0,.39.04.78.11,1.18s.2.76.39,1.09.43.59.74.79c.31.2.69.31,1.16.31s.9-.1,1.22-.31c.33-.2.59-.47.79-.79.2-.32.34-.69.42-1.1s.13-.82.13-1.22Z"/>
        <path class="cls-4" d="M243.56,255.46c-.03-.18-.07-.38-.09-.6-.03-.22-.05-.42-.06-.6-.36.52-.78.88-1.26,1.09s-1.03.31-1.65.31c-.4,0-.78-.05-1.14-.15-.36-.1-.68-.26-.96-.47-.28-.21-.5-.47-.66-.79-.16-.32-.25-.7-.25-1.14,0-.65.16-1.16.48-1.54.32-.38.72-.67,1.2-.87.48-.2,1.01-.33,1.59-.38.58-.06,1.13-.08,1.65-.08.16,0,.31,0,.45,0,.14,0,.27.01.4.03v-.51c0-.66-.14-1.17-.42-1.53-.28-.36-.77-.54-1.47-.54-.53,0-.95.11-1.25.33s-.48.62-.54,1.18h-1.46c.02-.46.13-.86.31-1.17s.43-.57.72-.77c.29-.19.63-.33,1-.42s.77-.13,1.17-.13c1.1,0,1.92.23,2.46.7.54.46.81,1.26.81,2.38v3.16c0,.57.03,1.08.09,1.54s.12.79.18.98h-1.31ZM243.25,251.15c-.18-.02-.32-.03-.42-.03h-.34c-.33,0-.7.02-1.1.05-.41.03-.79.12-1.15.25-.36.13-.65.32-.89.57-.24.25-.36.59-.36,1.04,0,.26.05.49.15.7s.24.37.42.51c.18.14.38.24.6.31.23.07.46.1.71.1.54,0,.97-.1,1.28-.3.31-.2.55-.46.71-.79.16-.33.27-.7.31-1.12.05-.42.07-.84.07-1.28Z"/>
        <path class="cls-4" d="M251.66,248.21c-.12-.01-.25-.02-.37-.02-.88,0-1.5.24-1.84.71-.34.47-.51,1.11-.51,1.93v4.62h-1.5v-6.07c0-.84-.02-1.68-.05-2.52h1.46l.07,1.38c.31-.51.67-.88,1.1-1.1.42-.22.93-.33,1.52-.33.08,0,.16,0,.25,0s.16.01.23.03v1.41c-.11-.02-.23-.04-.36-.05Z"/>
        <path class="cls-4" d="M254.49,251.44v.17c0,.4.05.78.16,1.14.11.36.27.69.48.97.21.28.48.51.81.67.32.17.7.25,1.13.25.61,0,1.11-.17,1.5-.52s.62-.83.71-1.44h1.43c-.17,1.01-.59,1.75-1.27,2.24s-1.51.72-2.48.72c-.67,0-1.25-.1-1.74-.31-.49-.21-.9-.51-1.23-.89s-.58-.84-.74-1.37c-.16-.53-.25-1.11-.25-1.75s.08-1.24.25-1.8c.16-.55.41-1.04.75-1.45.33-.41.76-.74,1.27-.98.51-.24,1.12-.36,1.82-.36s1.31.13,1.78.39.86.6,1.14,1.03c.28.43.48.93.59,1.5s.17,1.17.17,1.79h-6.27ZM259.28,250.44c0-.35-.04-.69-.13-1.01-.09-.33-.22-.61-.41-.86s-.42-.45-.71-.6c-.29-.15-.63-.23-1.01-.23s-.74.07-1.04.22-.54.35-.75.6c-.2.25-.37.54-.48.87s-.2.66-.23,1.01h4.76Z"/>
        <path class="cls-4" d="M275.87,251.04c0,.58-.08,1.14-.23,1.69-.15.55-.39,1.04-.71,1.46-.32.43-.72.77-1.19,1.03-.48.26-1.04.39-1.69.39s-1.14-.12-1.55-.36c-.41-.24-.8-.6-1.16-1.09v4.52h-1.5v-9.37c0-.4,0-.8,0-1.22,0-.41-.02-.82-.04-1.23h1.48l.05,1.48c.33-.57.73-.98,1.21-1.24s1.05-.39,1.7-.39c.62,0,1.17.12,1.63.36.46.24.84.56,1.13.95.29.4.51.86.66,1.38.14.52.21,1.07.21,1.63ZM274.29,251.14c0-.39-.04-.78-.12-1.17-.08-.4-.21-.76-.39-1.08-.18-.32-.43-.59-.74-.8s-.69-.31-1.15-.31c-.48,0-.88.1-1.21.31s-.59.47-.79.79c-.2.32-.34.69-.43,1.1-.09.41-.14.82-.14,1.22,0,.39.04.78.11,1.18s.2.76.39,1.09.43.59.74.79c.31.2.69.31,1.16.31s.9-.1,1.22-.31c.33-.2.59-.47.79-.79.2-.32.34-.69.42-1.1s.13-.82.13-1.22Z"/>
        <path class="cls-4" d="M283.45,255.46c-.03-.18-.07-.38-.09-.6-.03-.22-.05-.42-.06-.6-.36.52-.78.88-1.26,1.09s-1.03.31-1.65.31c-.4,0-.78-.05-1.14-.15-.36-.1-.68-.26-.96-.47-.28-.21-.5-.47-.66-.79-.16-.32-.25-.7-.25-1.14,0-.65.16-1.16.48-1.54.32-.38.72-.67,1.2-.87.48-.2,1.01-.33,1.59-.38.58-.06,1.13-.08,1.65-.08.16,0,.31,0,.45,0,.14,0,.27.01.4.03v-.51c0-.66-.14-1.17-.42-1.53-.28-.36-.77-.54-1.47-.54-.53,0-.95.11-1.25.33s-.48.62-.54,1.18h-1.46c.02-.46.13-.86.31-1.17s.43-.57.72-.77c.29-.19.63-.33,1-.42s.77-.13,1.17-.13c1.1,0,1.92.23,2.46.7.54.46.81,1.26.81,2.38v3.16c0,.57.03,1.08.09,1.54s.12.79.18.98h-1.31ZM283.15,251.15c-.18-.02-.32-.03-.42-.03h-.34c-.33,0-.7.02-1.1.05-.41.03-.79.12-1.15.25-.36.13-.65.32-.89.57-.24.25-.36.59-.36,1.04,0,.26.05.49.15.7s.24.37.42.51c.18.14.38.24.6.31.23.07.46.1.71.1.54,0,.97-.1,1.28-.3.31-.2.55-.46.71-.79.16-.33.27-.7.31-1.12.05-.42.07-.84.07-1.28Z"/>
        <path class="cls-4" d="M291.56,248.21c-.12-.01-.25-.02-.37-.02-.88,0-1.5.24-1.84.71-.34.47-.51,1.11-.51,1.93v4.62h-1.5v-6.07c0-.84-.02-1.68-.05-2.52h1.46l.07,1.38c.31-.51.67-.88,1.1-1.1.42-.22.93-.33,1.52-.33.08,0,.16,0,.25,0s.16.01.23.03v1.41c-.11-.02-.23-.04-.36-.05Z"/>
        <path class="cls-4" d="M296.15,255.54c-.69,0-1.21-.15-1.56-.46-.35-.31-.53-.82-.53-1.53v-5.64h-1.68v-1.04h1.68v-1.67l1.5-.63v2.29h1.92v1.04h-1.92v5.05c0,.26.01.48.03.66.02.18.08.33.16.44s.2.2.36.25c.15.05.36.08.62.08.14,0,.27,0,.39-.03.12-.02.26-.04.41-.06v1.14c-.48.07-.93.1-1.38.1Z"/>
        <path class="cls-4" d="M305.61,252.97c0,.49-.1.9-.31,1.24-.2.34-.47.62-.81.83-.33.21-.71.36-1.12.46-.41.1-.83.14-1.25.14-.45,0-.88-.05-1.29-.14-.41-.1-.77-.25-1.07-.48-.31-.22-.55-.51-.72-.86-.18-.35-.26-.79-.26-1.31h1.5c.03.6.22,1.04.54,1.33s.79.42,1.38.42c.23,0,.45-.03.68-.08.23-.06.43-.14.62-.26.19-.12.34-.27.46-.45.12-.18.18-.4.18-.66,0-.23-.05-.42-.14-.58-.1-.16-.23-.3-.4-.42-.17-.12-.37-.22-.59-.3-.23-.08-.46-.15-.71-.2l-.7-.17c-.32-.08-.63-.18-.94-.29-.31-.11-.59-.26-.83-.43-.24-.17-.44-.4-.59-.66-.15-.27-.22-.59-.22-.98,0-.44.1-.82.3-1.13.2-.31.45-.57.77-.76.31-.2.66-.34,1.05-.42.39-.08.77-.13,1.15-.13.43,0,.83.05,1.21.14.37.1.7.25.99.45.28.2.51.47.67.8.16.33.26.73.28,1.21h-1.48c-.02-.52-.18-.91-.48-1.19-.3-.27-.71-.41-1.22-.41-.19,0-.39.02-.6.07-.21.05-.4.12-.57.22-.17.1-.31.24-.43.4s-.17.36-.17.59c0,.4.18.7.54.92.36.22.79.39,1.3.51l.68.17c.37.09.72.2,1.05.32.32.12.6.28.83.47.23.19.42.41.55.67.14.26.2.58.2.95Z"/>
        <path class="cls-4" d="M228.94,277.46c-.03-.18-.07-.38-.09-.6-.03-.22-.05-.42-.06-.6-.36.52-.78.88-1.26,1.09s-1.03.31-1.65.31c-.4,0-.78-.05-1.14-.15-.36-.1-.68-.26-.96-.47-.28-.21-.5-.47-.66-.79-.16-.32-.25-.7-.25-1.14,0-.65.16-1.16.48-1.54.32-.38.72-.67,1.2-.87.48-.2,1.01-.33,1.59-.38.58-.06,1.13-.08,1.65-.08.16,0,.31,0,.45,0,.14,0,.27.01.4.03v-.51c0-.66-.14-1.17-.42-1.53-.28-.36-.77-.54-1.47-.54-.53,0-.95.11-1.25.33s-.48.62-.54,1.18h-1.46c.02-.46.13-.86.31-1.17s.43-.57.72-.77c.29-.19.63-.33,1-.42s.77-.13,1.17-.13c1.1,0,1.92.23,2.46.7.54.46.81,1.26.81,2.38v3.16c0,.57.03,1.08.09,1.54s.12.79.18.98h-1.31ZM228.63,273.15c-.18-.02-.32-.03-.42-.03h-.34c-.33,0-.7.02-1.1.05-.41.03-.79.12-1.15.25-.36.13-.65.32-.89.57-.24.25-.36.59-.36,1.04,0,.26.05.49.15.7s.24.37.42.51c.18.14.38.24.6.31.23.07.46.1.71.1.54,0,.97-.1,1.28-.3.31-.2.55-.46.71-.79.16-.33.27-.7.31-1.12.05-.42.07-.84.07-1.28Z"/>
        <path class="cls-4" d="M236.43,277.46h-1.56l-3.48-8.58h1.7l2.67,7.14,2.72-7.14h1.53l-3.57,8.58Z"/>
        <path class="cls-4" d="M246.74,277.46c-.03-.18-.07-.38-.09-.6-.03-.22-.05-.42-.06-.6-.36.52-.78.88-1.26,1.09s-1.03.31-1.65.31c-.4,0-.78-.05-1.14-.15-.36-.1-.68-.26-.96-.47-.28-.21-.5-.47-.66-.79-.16-.32-.25-.7-.25-1.14,0-.65.16-1.16.48-1.54.32-.38.72-.67,1.2-.87.48-.2,1.01-.33,1.59-.38.58-.06,1.13-.08,1.65-.08.16,0,.31,0,.45,0,.14,0,.27.01.4.03v-.51c0-.66-.14-1.17-.42-1.53-.28-.36-.77-.54-1.47-.54-.53,0-.95.11-1.25.33s-.48.62-.54,1.18h-1.46c.02-.46.13-.86.31-1.17s.43-.57.72-.77c.29-.19.63-.33,1-.42s.77-.13,1.17-.13c1.1,0,1.92.23,2.46.7.54.46.81,1.26.81,2.38v3.16c0,.57.03,1.08.09,1.54s.12.79.18.98h-1.31ZM246.43,273.15c-.18-.02-.32-.03-.42-.03h-.34c-.33,0-.7.02-1.1.05-.41.03-.79.12-1.15.25-.36.13-.65.32-.89.57-.24.25-.36.59-.36,1.04,0,.26.05.49.15.7s.24.37.42.51c.18.14.38.24.6.31.23.07.46.1.71.1.54,0,.97-.1,1.28-.3.31-.2.55-.46.71-.79.16-.33.27-.7.31-1.12.05-.42.07-.84.07-1.28Z"/>
        <path class="cls-4" d="M250.54,266.68v-1.51h1.67v1.51h-1.67ZM250.63,277.46v-8.58h1.5v8.58h-1.5Z"/>
        <path class="cls-4" d="M254.91,277.46v-12.29h1.5v12.29h-1.5Z"/>
        <path class="cls-4" d="M264.64,277.46c-.03-.18-.07-.38-.09-.6-.03-.22-.05-.42-.06-.6-.36.52-.78.88-1.26,1.09s-1.03.31-1.65.31c-.4,0-.78-.05-1.14-.15-.36-.1-.68-.26-.96-.47-.28-.21-.5-.47-.66-.79-.16-.32-.25-.7-.25-1.14,0-.65.16-1.16.48-1.54.32-.38.72-.67,1.2-.87.48-.2,1.01-.33,1.59-.38.58-.06,1.13-.08,1.65-.08.16,0,.31,0,.45,0,.14,0,.27.01.4.03v-.51c0-.66-.14-1.17-.42-1.53-.28-.36-.77-.54-1.47-.54-.53,0-.95.11-1.25.33s-.48.62-.54,1.18h-1.46c.02-.46.13-.86.31-1.17s.43-.57.72-.77c.29-.19.63-.33,1-.42s.77-.13,1.17-.13c1.1,0,1.92.23,2.46.7.54.46.81,1.26.81,2.38v3.16c0,.57.03,1.08.09,1.54s.12.79.18.98h-1.31ZM264.33,273.15c-.18-.02-.32-.03-.42-.03h-.34c-.33,0-.7.02-1.1.05-.41.03-.79.12-1.15.25-.36.13-.65.32-.89.57-.24.25-.36.59-.36,1.04,0,.26.05.49.15.7s.24.37.42.51c.18.14.38.24.6.31.23.07.46.1.71.1.54,0,.97-.1,1.28-.3.31-.2.55-.46.71-.79.16-.33.27-.7.31-1.12.05-.42.07-.84.07-1.28Z"/>
        <path class="cls-4" d="M276.55,273.04c0,.58-.08,1.14-.23,1.69-.15.55-.39,1.04-.71,1.46-.32.43-.72.77-1.2,1.03-.48.26-1.05.39-1.7.39-.61,0-1.13-.12-1.54-.37-.42-.24-.8-.61-1.15-1.1l-.08,1.31h-1.46c.02-.42.04-.83.04-1.25,0-.41,0-.83,0-1.25v-9.79h1.5v5.15c.66-1.08,1.63-1.62,2.9-1.62.64,0,1.18.12,1.64.36.45.24.83.56,1.12.96s.51.86.66,1.39c.14.52.21,1.07.21,1.63ZM274.97,273.14c0-.39-.04-.78-.11-1.17-.07-.4-.2-.76-.39-1.09-.19-.33-.43-.6-.74-.81-.31-.21-.69-.31-1.14-.31-.48,0-.88.1-1.21.31s-.6.47-.8.79c-.2.32-.35.69-.44,1.1s-.14.82-.14,1.22c0,.39.04.78.11,1.17.07.4.2.76.39,1.08s.43.59.74.79c.31.2.69.31,1.16.31s.9-.1,1.22-.3c.33-.2.59-.46.79-.77.2-.32.34-.68.42-1.08s.13-.81.13-1.23Z"/>
        <path class="cls-4" d="M278.61,266.68v-1.51h1.67v1.51h-1.67ZM278.7,277.46v-8.58h1.5v8.58h-1.5Z"/>
        <path class="cls-4" d="M282.98,277.46v-12.29h1.5v12.29h-1.5Z"/>
        <path class="cls-4" d="M287.18,266.68v-1.51h1.67v1.51h-1.67ZM287.26,277.46v-8.58h1.5v8.58h-1.5Z"/>
        <path class="cls-4" d="M294.18,277.54c-.69,0-1.21-.15-1.56-.46-.35-.31-.53-.82-.53-1.53v-5.64h-1.68v-1.04h1.68v-1.67l1.5-.63v2.29h1.92v1.04h-1.92v5.05c0,.26.01.48.03.66.02.18.08.33.16.44s.2.2.36.25c.15.05.36.08.62.08.14,0,.27,0,.39-.03.12-.02.26-.04.41-.06v1.14c-.48.07-.93.1-1.38.1Z"/>
        <path class="cls-4" d="M299.96,280.69h-1.5l1.41-3.25-3.65-8.57h1.7l2.7,7.02,2.69-7.02h1.51l-4.86,11.82Z"/>
      </g>
    </g>
  </g>
</svg>