<?xml version="1.0" encoding="UTF-8"?>
<svg id="Layer_2" data-name="Layer 2" xmlns="http://www.w3.org/2000/svg" viewBox="0 0 952.95 433.63">
  <defs>
    <style>
      .cls-1 {
        font-family: MyriadPro-Regular, 'Myriad Pro';
        font-size: 39.22px;
      }

      .cls-1, .cls-2 {
        fill: #fff;
      }

      .cls-2 {
        stroke-width: 0px;
      }
    </style>
  </defs>
  <g id="Layer_1-2" data-name="Layer 1">
    <g>
      <g>
        <polygon class="cls-2" points="120.36 39.39 178.78 94.58 179.13 144.38 120.19 39.51 111.33 44.84 189.51 180.97 189.51 88.69 129.67 33.79 120.36 39.39"/>
        <polygon class="cls-2" points="189.51 0 178.99 4.45 178.99 44.34 150.76 21.17 141.53 26.64 189.51 71.79 189.51 0"/>
        <polygon class="cls-2" points="204.38 180.97 282.54 44.84 273.71 39.51 214.76 144.38 215.12 94.58 273.49 39.39 264.19 33.79 204.38 88.69 204.38 180.97"/>
        <polygon class="cls-2" points="243.11 21.17 214.89 44.34 214.89 4.45 204.38 0 204.38 71.79 252.32 26.64 243.11 21.17"/>
        <polygon class="cls-2" points="3.82 202.61 160.83 203 80.92 156.85 3.45 181.21 3.64 192.07 80.66 169.06 123.96 193.66 3.67 192.3 3.82 202.61"/>
        <polygon class="cls-2" points="3.06 156.61 3.17 167.34 66.27 148.38 4.09 112.5 2.74 123.82 37.23 143.79 3.06 156.61"/>
        <polygon class="cls-2" points="168.27 190.1 89.44 54.33 80.45 59.32 141.76 162.81 98.8 137.63 80.25 59.44 70.72 64.69 88.35 143.97 168.27 190.1"/>
        <polygon class="cls-2" points="58.58 71.41 49.24 76.67 55.2 112.68 20.68 92.72 11.5 99.61 73.7 135.51 58.58 71.41"/>
        <polygon class="cls-2" points="85.6 284.95 68.01 364.22 77.49 369.49 96.1 291.3 139.05 266.1 77.74 369.61 86.75 374.59 165.56 238.83 85.6 284.95"/>
        <polygon class="cls-2" points="8.81 329.32 17.92 336.21 52.5 316.26 46.53 352.26 55.86 357.52 70.99 293.4 8.81 329.32"/>
        <polygon class="cls-2" points="158.1 225.93 1.12 226.3 .94 236.61 121.25 235.27 77.94 259.86 .94 236.88 .76 247.71 78.2 272.08 158.1 225.93"/>
        <polygon class="cls-2" points=".46 261.58 .35 272.3 34.53 285.15 0 305.09 1.37 316.43 63.56 280.54 .46 261.58"/>
        <polygon class="cls-2" points="198.95 344.92 258.77 399.81 268.06 394.23 209.67 339.05 209.29 289.25 268.3 394.12 277.13 388.78 198.95 252.64 198.95 344.92"/>
        <polygon class="cls-2" points="198.95 433.63 209.47 429.16 209.47 389.27 237.69 412.45 246.91 406.99 198.95 361.81 198.95 433.63"/>
        <polygon class="cls-2" points="114.73 394.12 173.71 289.25 173.34 339.05 114.94 394.23 124.24 399.81 184.07 344.92 184.07 252.64 105.89 388.78 114.73 394.12"/>
        <polygon class="cls-2" points="145.33 412.45 173.55 389.27 173.55 429.16 184.06 433.63 184.06 361.81 136.12 406.99 145.33 412.45"/>
        <polygon class="cls-2" points="384.6 231.01 227.62 230.63 307.54 276.77 384.99 252.41 384.81 241.56 307.8 264.57 264.5 239.95 384.81 241.33 384.6 231.01"/>
        <polygon class="cls-2" points="385.39 277.01 385.27 266.27 322.2 285.23 384.34 321.14 385.74 309.78 351.2 289.83 385.39 277.01"/>
        <polygon class="cls-2" points="220.18 243.53 298.99 379.28 308.01 374.31 246.68 270.81 289.63 296.02 308.25 374.19 317.74 368.92 300.13 289.65 220.18 243.53"/>
        <polygon class="cls-2" points="329.87 362.22 339.2 356.97 333.24 320.94 367.79 340.89 376.92 334.02 314.74 298.1 329.87 362.22"/>
        <polygon class="cls-2" points="302.82 148.64 320.44 69.39 310.93 64.12 292.34 142.31 249.4 167.52 310.72 64.01 301.75 59.03 222.89 194.79 302.82 148.64"/>
        <polygon class="cls-2" points="379.66 104.31 370.51 97.42 335.97 117.35 341.93 81.36 332.58 76.09 317.48 140.21 379.66 104.31"/>
        <polygon class="cls-2" points="230.35 207.7 387.33 207.32 387.5 197 267.22 198.36 310.52 173.77 387.5 196.75 387.73 185.91 310.26 161.54 230.35 207.7"/>
        <polygon class="cls-2" points="388.46 128.54 387.06 117.2 324.89 153.1 387.99 172.03 388.1 161.3 353.92 148.47 388.46 128.54"/>
      </g>
      <g>
        <g>
          <path class="cls-2" d="M435.6,240.88c-3.15,0-5.7-.78-7.64-2.33-1.95-1.55-2.92-4.17-2.92-7.86v-14.55h6.2v13.66c0,1.67.33,3.08,1,4.21.67,1.13,2.08,1.7,4.26,1.7h25.83c-.84-2.02-1.47-4.01-1.88-5.98-.42-1.97-.63-3.79-.63-5.46,0-2.22.36-4.26,1.07-6.13.71-1.87,1.81-3.48,3.29-4.84,1.48-1.35,3.35-2.42,5.61-3.21,2.26-.79,4.95-1.18,8.05-1.18,2.26,0,4.28.07,6.06.22,1.77.15,3.49.27,5.17.37v23.7c0,.44.17.83.52,1.14.34.32.77.58,1.29.78.52.2,1.07.34,1.66.44s1.11.15,1.55.15h1.92c.98,0,1.72.14,2.21.41.49.27.74.92.74,1.96,0,1.23-.23,2.01-.7,2.33-.47.32-1.22.48-2.25.48h-1.33c-1.43,0-2.69-.23-3.8-.7-1.11-.47-2.06-1.29-2.84-2.47-.59.79-1.53,1.51-2.81,2.18-1.28.67-3.2,1-5.76,1h-43.86ZM478.06,235.71c2.02,0,3.32-.46,3.91-1.37.59-.91.89-2.4.89-4.47v-15.8c-.49-.05-.99-.1-1.48-.15-.49-.05-.94-.07-1.33-.07-4.53,0-7.96.78-10.3,2.33-2.34,1.55-3.51,4.22-3.51,8.01,0,.84.13,2.17.41,3.99.27,1.82,1.07,4.33,2.4,7.53h9.01ZM472.38,199.68c0-1.08.38-2.01,1.14-2.77s1.69-1.14,2.77-1.14,2.01.38,2.77,1.14c.76.76,1.14,1.69,1.14,2.77s-.38,2.01-1.14,2.77c-.76.76-1.69,1.14-2.77,1.14s-2.01-.38-2.77-1.14c-.76-.76-1.14-1.69-1.14-2.77Z"/>
          <path class="cls-2" d="M496.01,240.88c-.98,0-1.72-.17-2.22-.52-.49-.34-.74-1.03-.74-2.07,0-1.23.23-1.97.7-2.21.47-.25,1.22-.37,2.25-.37h11c.98,0,1.72.14,2.22.41.49.27.74.92.74,1.96,0,1.23-.23,2.01-.7,2.33-.47.32-1.22.48-2.25.48h-11Z"/>
          <path class="cls-2" d="M506.94,240.88c-.98,0-1.72-.17-2.22-.52-.49-.34-.74-1.03-.74-2.07,0-1.23.23-1.97.7-2.21.47-.25,1.22-.37,2.25-.37h11c.98,0,1.72.14,2.22.41.49.27.74.92.74,1.96,0,1.23-.23,2.01-.7,2.33-.47.32-1.22.48-2.25.48h-11Z"/>
          <path class="cls-2" d="M517.86,240.88c-.98,0-1.72-.17-2.22-.52-.49-.34-.74-1.03-.74-2.07,0-1.23.23-1.97.7-2.21.47-.25,1.22-.37,2.25-.37h11c.98,0,1.72.14,2.22.41.49.27.74.92.74,1.96,0,1.23-.23,2.01-.7,2.33-.47.32-1.22.48-2.25.48h-11Z"/>
          <path class="cls-2" d="M528.79,240.88c-.98,0-1.72-.17-2.22-.52-.49-.34-.74-1.03-.74-2.07,0-1.23.23-1.97.7-2.21.47-.25,1.22-.37,2.25-.37h11c.98,0,1.72.14,2.22.41.49.27.74.92.74,1.96,0,1.23-.23,2.01-.7,2.33-.47.32-1.22.48-2.25.48h-11Z"/>
          <path class="cls-2" d="M539.72,240.88c-.98,0-1.72-.17-2.22-.52-.49-.34-.74-1.03-.74-2.07,0-1.23.23-1.97.7-2.21.47-.25,1.22-.37,2.25-.37h11c.98,0,1.72.14,2.22.41.49.27.74.92.74,1.96,0,1.23-.23,2.01-.7,2.33-.47.32-1.22.48-2.25.48h-11Z"/>
          <path class="cls-2" d="M550.65,240.88c-.98,0-1.72-.17-2.22-.52-.49-.34-.74-1.03-.74-2.07,0-1.23.23-1.97.7-2.21.47-.25,1.22-.37,2.25-.37h11c.98,0,1.72.14,2.22.41.49.27.74.92.74,1.96,0,1.23-.23,2.01-.7,2.33-.47.32-1.22.48-2.25.48h-11Z"/>
          <path class="cls-2" d="M561.58,240.88c-.98,0-1.72-.17-2.22-.52-.49-.34-.74-1.03-.74-2.07,0-1.23.23-1.97.7-2.21.47-.25,1.22-.37,2.25-.37h11c.98,0,1.72.14,2.22.41.49.27.74.92.74,1.96,0,1.23-.23,2.01-.7,2.33-.47.32-1.22.48-2.25.48h-11Z"/>
          <path class="cls-2" d="M572.51,240.88c-.98,0-1.72-.17-2.22-.52-.49-.34-.74-1.03-.74-2.07,0-1.23.23-1.97.7-2.21.47-.25,1.22-.37,2.25-.37h11c.98,0,1.72.14,2.22.41.49.27.74.92.74,1.96,0,1.23-.23,2.01-.7,2.33-.47.32-1.22.48-2.25.48h-11Z"/>
          <path class="cls-2" d="M583.44,240.88c-.98,0-1.72-.17-2.22-.52-.49-.34-.74-1.03-.74-2.07,0-1.23.23-1.97.7-2.21.47-.25,1.22-.37,2.25-.37h11c.98,0,1.72.14,2.22.41.49.27.74.92.74,1.96,0,1.23-.23,2.01-.7,2.33-.47.32-1.22.48-2.25.48h-11Z"/>
          <path class="cls-2" d="M594.37,240.88c-.98,0-1.72-.17-2.22-.52-.49-.34-.74-1.03-.74-2.07,0-1.23.23-1.97.7-2.21.47-.25,1.22-.37,2.25-.37h5.17c2.02,0,3.32-.46,3.91-1.37.59-.91.89-2.4.89-4.47v-20.38h6.2v23.7c0,.44.17.83.52,1.14.34.32.78.58,1.29.78.52.2,1.07.34,1.66.44s1.11.15,1.55.15h1.92c.98,0,1.72.14,2.22.41.49.27.74.92.74,1.96,0,1.23-.23,2.01-.7,2.33-.47.32-1.22.48-2.25.48h-1.33c-1.43,0-2.7-.23-3.8-.7-1.11-.47-2.06-1.29-2.84-2.47-.59.79-1.53,1.51-2.81,2.18-1.28.67-3.2,1-5.76,1h-6.57ZM598.35,250.18c0-1.08.38-2.01,1.14-2.77.76-.76,1.69-1.14,2.77-1.14s2,.38,2.77,1.14c.76.76,1.14,1.69,1.14,2.77s-.38,2.01-1.14,2.77c-.76.76-1.69,1.14-2.77,1.14s-2.01-.38-2.77-1.14-1.14-1.69-1.14-2.77ZM607.95,250.18c0-1.08.38-2.01,1.14-2.77.76-.76,1.69-1.14,2.77-1.14s2.01.38,2.77,1.14c.76.76,1.14,1.69,1.14,2.77s-.38,2.01-1.14,2.77c-.76.76-1.69,1.14-2.77,1.14s-2.01-.38-2.77-1.14-1.14-1.69-1.14-2.77Z"/>
          <path class="cls-2" d="M617.48,240.88c-.98,0-1.72-.17-2.22-.52-.49-.34-.74-1.03-.74-2.07,0-1.23.23-1.97.7-2.21.47-.25,1.22-.37,2.25-.37h5.17c2.02,0,3.32-.46,3.91-1.37.59-.91.89-2.4.89-4.47v-20.38h6.2v23.7c0,.44.17.83.52,1.14.34.32.78.58,1.29.78.52.2,1.07.34,1.66.44s1.11.15,1.55.15h1.92c.98,0,1.72.14,2.22.41.49.27.74.92.74,1.96,0,1.23-.23,2.01-.7,2.33-.47.32-1.22.48-2.25.48h-1.33c-1.43,0-2.7-.23-3.8-.7-1.11-.47-2.06-1.29-2.84-2.47-.59.79-1.53,1.51-2.81,2.18-1.28.67-3.2,1-5.76,1h-6.57ZM621.47,250.18c0-1.08.38-2.01,1.14-2.77.76-.76,1.69-1.14,2.77-1.14s2,.38,2.77,1.14c.76.76,1.14,1.69,1.14,2.77s-.38,2.01-1.14,2.77c-.76.76-1.69,1.14-2.77,1.14s-2.01-.38-2.77-1.14-1.14-1.69-1.14-2.77ZM631.07,250.18c0-1.08.38-2.01,1.14-2.77.76-.76,1.69-1.14,2.77-1.14s2.01.38,2.77,1.14c.76.76,1.14,1.69,1.14,2.77s-.38,2.01-1.14,2.77c-.76.76-1.69,1.14-2.77,1.14s-2.01-.38-2.77-1.14-1.14-1.69-1.14-2.77Z"/>
          <path class="cls-2" d="M679.36,233.2c0,.44.17.83.52,1.14.35.32.77.58,1.27.78.5.2,1.04.34,1.64.44.6.1,1.12.15,1.56.15h1.41c.99,0,1.74.14,2.23.41s.74.92.74,1.96c0,1.23-.24,2.01-.71,2.33s-1.23.48-2.27.48h-.82c-1.44,0-2.71-.23-3.83-.7-1.11-.47-2.07-1.29-2.86-2.47-.58.79-1.51,1.51-2.77,2.18-1.26.67-3.18,1-5.73,1h-29.17c-.98,0-1.72-.17-2.22-.52-.49-.34-.74-1.03-.74-2.07,0-1.23.23-1.97.7-2.21.47-.25,1.22-.37,2.25-.37h27.76c2.02,0,3.32-.46,3.91-1.37.59-.91.89-2.4.89-4.47v-2.21c0-2.56-.31-4.7-.92-6.42-.62-1.72-1.55-3.08-2.81-4.06-1.26-.98-2.88-1.69-4.87-2.1s-4.35-.63-7.05-.63h-12.85v-4.95l20.9-22.38,4.06,3.77-17.28,18.61h5.61c3.4,0,6.42.28,9.08.85,2.66.57,4.9,1.49,6.74,2.77,1.83,1.28,3.22,3,4.17,5.17.95,2.17,1.42,4.87,1.42,8.12v6.79Z"/>
          <path class="cls-2" d="M685.78,240.88c-.98,0-1.72-.17-2.22-.52-.49-.34-.74-1.03-.74-2.07,0-1.23.23-1.97.7-2.21.47-.25,1.22-.37,2.25-.37h5.17c2.02,0,3.32-.46,3.91-1.37.59-.91.89-2.4.89-4.47v-20.38h6.2v23.7c0,.44.17.83.52,1.14.34.32.78.58,1.29.78.52.2,1.07.34,1.66.44s1.11.15,1.55.15h1.92c.98,0,1.72.14,2.22.41.49.27.74.92.74,1.96,0,1.23-.23,2.01-.7,2.33-.47.32-1.22.48-2.25.48h-1.33c-1.43,0-2.7-.23-3.8-.7-1.11-.47-2.06-1.29-2.84-2.47-.59.79-1.53,1.51-2.81,2.18-1.28.67-3.2,1-5.76,1h-6.57ZM690.36,199.68c0-1.08.38-2.01,1.14-2.77s1.69-1.14,2.77-1.14,2.01.38,2.77,1.14c.76.76,1.14,1.69,1.14,2.77s-.38,2.01-1.14,2.77c-.76.76-1.69,1.14-2.77,1.14s-2.01-.38-2.77-1.14c-.76-.76-1.14-1.69-1.14-2.77ZM699.96,199.68c0-1.08.38-2.01,1.14-2.77s1.69-1.14,2.77-1.14,2.01.38,2.77,1.14c.76.76,1.14,1.69,1.14,2.77s-.38,2.01-1.14,2.77c-.76.76-1.69,1.14-2.77,1.14s-2.01-.38-2.77-1.14c-.76-.76-1.14-1.69-1.14-2.77Z"/>
          <path class="cls-2" d="M708.9,240.88c-.98,0-1.72-.17-2.22-.52-.49-.34-.74-1.03-.74-2.07,0-1.23.23-1.97.7-2.21.47-.25,1.22-.37,2.25-.37h5.17c2.02,0,3.32-.46,3.91-1.37.59-.91.89-2.4.89-4.47v-42.39h6.2v45.71c0,.44.17.83.52,1.14.34.32.78.58,1.29.78.52.2,1.07.34,1.66.44s1.11.15,1.55.15h1.92c.98,0,1.72.14,2.22.41.49.27.74.92.74,1.96,0,1.23-.23,2.01-.7,2.33-.47.32-1.22.48-2.25.48h-1.33c-1.43,0-2.7-.23-3.8-.7-1.11-.47-2.06-1.29-2.84-2.47-.59.79-1.53,1.51-2.81,2.18-1.28.67-3.2,1-5.76,1h-6.57Z"/>
          <path class="cls-2" d="M732.01,240.88c-.98,0-1.72-.17-2.22-.52-.49-.34-.74-1.03-.74-2.07,0-1.23.23-1.97.7-2.21.47-.25,1.22-.37,2.25-.37h9.23v-48.22h6.2v53.39h-15.43Z"/>
          <path class="cls-2" d="M782.3,214.44v-4.95h6.35c4.18,0,7.6.41,10.26,1.22,2.66.81,4.72,1.96,6.17,3.43,1.46,1.48,2.46,3.25,2.99,5.32.54,2.07.8,4.38.8,6.94v14.47h-31.16v-5.17h24.96v-8.05c0-1.92-.12-3.69-.37-5.32-.25-1.62-.85-3.02-1.81-4.17-.96-1.16-2.4-2.07-4.32-2.73-1.92-.67-4.58-1-7.98-1h-5.91Z"/>
          <path class="cls-2" d="M825.49,187.49v53.39h-6.2v-53.39h6.2Z"/>
          <path class="cls-2" d="M864.93,240.88c-.1,2.02-.41,3.83-.95,5.43-.54,1.6-1.38,2.95-2.52,4.06-1.14,1.11-2.64,1.96-4.48,2.55-1.84.59-4.12.89-6.82.89h-9.01v-4.95h9.01c2.95,0,5.08-.63,6.39-1.88,1.3-1.25,2.03-3.29,2.18-6.09h-4.36c-3.89,0-7.02-.52-9.38-1.55s-4.2-2.34-5.5-3.91c-1.31-1.57-2.18-3.29-2.62-5.13-.44-1.85-.66-3.58-.66-5.21,0-2.41.38-4.6,1.14-6.57.76-1.97,1.94-3.67,3.54-5.1,1.6-1.43,3.65-2.53,6.15-3.32,2.5-.79,5.52-1.18,9.06-1.18,1.28,0,2.74.07,4.38.22,1.65.15,3.15.27,4.53.37v26.21h6.85c.99,0,1.74.14,2.23.41s.74.92.74,1.96c0,1.23-.24,2.01-.71,2.33-.47.32-1.23.48-2.27.48h-6.92ZM842.4,225.08c0,1.97.29,3.63.88,4.98.59,1.35,1.43,2.45,2.54,3.29,1.1.84,2.41,1.44,3.93,1.81,1.52.37,3.23.55,5.15.55h3.9v-21.78c-.39-.05-.81-.09-1.25-.11-.44-.02-.88-.04-1.32-.04-1.42,0-2.94.09-4.56.26-1.62.17-3.11.64-4.48,1.4-1.37.76-2.51,1.9-3.42,3.4-.91,1.5-1.36,3.58-1.36,6.24Z"/>
          <path class="cls-2" d="M871.87,240.88c-1.97,0-2.95-.86-2.95-2.58,0-1.13.23-1.85.7-2.14.47-.3,1.22-.44,2.25-.44h16.17c-2.07-1.67-3.75-3.29-5.06-4.84-1.3-1.55-2.33-2.99-3.06-4.32s-1.23-2.56-1.48-3.69c-.25-1.13-.37-2.14-.37-3.03,0-1.82.39-3.42,1.18-4.8.79-1.38,1.86-2.54,3.21-3.47,1.35-.93,2.97-1.62,4.84-2.07,1.87-.44,3.91-.67,6.13-.67s4.26.21,6.13.63c1.87.42,3.5,1.07,4.87,1.96,1.38.89,2.45,2.01,3.21,3.36.76,1.35,1.14,2.97,1.14,4.84s-.7,4.27-2.1,7.05c-1.4,2.78-4.02,5.8-7.86,9.05h14.1c.98,0,1.72.14,2.22.41.49.27.74.92.74,1.96,0,1.23-.23,2.01-.7,2.33-.47.32-1.22.48-2.25.48h-8.94c-1.62,0-3-.06-4.14-.18-1.13-.12-2.08-.28-2.84-.48-.76-.2-1.42-.41-1.96-.63-.54-.22-1.06-.41-1.55-.55-.49.15-1.02.33-1.59.55-.57.22-1.26.43-2.07.63-.81.2-1.81.36-2.99.48-1.18.12-2.66.18-4.43.18h-10.56ZM893.43,213.85c-1.23,0-2.4.14-3.51.41-1.11.27-2.07.69-2.88,1.25-.81.57-1.45,1.29-1.92,2.18-.47.89-.7,1.95-.7,3.17,0,.54.07,1.22.22,2.03.15.81.53,1.75,1.14,2.81.61,1.06,1.53,2.28,2.73,3.66,1.21,1.38,2.87,2.91,4.98,4.58,1.92-1.48,3.47-2.89,4.65-4.25,1.18-1.35,2.09-2.61,2.73-3.77.64-1.16,1.06-2.19,1.26-3.1.2-.91.3-1.66.3-2.25,0-1.33-.28-2.42-.85-3.29-.57-.86-1.29-1.55-2.18-2.07-.89-.52-1.86-.87-2.92-1.07-1.06-.2-2.08-.29-3.06-.29Z"/>
          <path class="cls-2" d="M912.85,240.88c-.98,0-1.72-.17-2.22-.52-.49-.34-.74-1.03-.74-2.07,0-1.23.23-1.97.7-2.21.47-.25,1.22-.37,2.25-.37h9.23v-48.22h6.2v53.39h-15.43Z"/>
          <path class="cls-2" d="M946.67,187.49v53.39h-6.2v-53.39h6.2Z"/>
        </g>
        <g>
          <path class="cls-2" d="M439.45,295.45c0-1.29-.08-2.49-.25-3.59-.17-1.1-.57-2.03-1.22-2.82-.65-.78-1.62-1.4-2.92-1.84-1.3-.45-3.09-.67-5.38-.67h-3.99v-3.34h4.29c2.82,0,5.13.27,6.92.82,1.79.55,3.18,1.32,4.17,2.32.98,1,1.66,2.19,2.02,3.59.36,1.39.54,2.96.54,4.68v4.58c0,.3.12.56.35.77s.53.39.88.52c.35.13.73.23,1.13.3.4.07.75.1,1.06.1h.9c.67,0,1.17.09,1.51.27.33.18.5.62.5,1.32,0,.83-.16,1.35-.48,1.57-.32.22-.83.32-1.53.32h-.5c-.97,0-1.83-.16-2.58-.47-.75-.32-1.4-.87-1.93-1.67-.39.53-1.02,1.02-1.87,1.47-.85.45-2.14.67-3.87.67h-14.6v-3.49h13.6c1.36,0,2.24-.31,2.64-.92.4-.61.6-1.62.6-3.01v-1.5Z"/>
          <path class="cls-2" d="M447.97,304.37c-.66,0-1.16-.12-1.49-.35-.33-.23-.5-.7-.5-1.4,0-1.16.67-1.74,1.99-1.74h6.23v-17.69h4.19v21.18h-10.41ZM448.92,310.64c0-.73.26-1.35.77-1.87.51-.51,1.14-.77,1.87-.77s1.35.26,1.87.77c.51.51.77,1.14.77,1.87s-.26,1.35-.77,1.87c-.52.51-1.14.77-1.87.77s-1.35-.26-1.87-.77c-.52-.52-.77-1.14-.77-1.87ZM455.39,310.64c0-.73.26-1.35.77-1.87.51-.51,1.14-.77,1.87-.77s1.35.26,1.87.77c.51.51.77,1.14.77,1.87s-.26,1.35-.77,1.87c-.52.51-1.14.77-1.87.77s-1.35-.26-1.87-.77c-.52-.52-.77-1.14-.77-1.87Z"/>
          <path class="cls-2" d="M469,283.19h4.19v17.69h4.62c.67,0,1.17.09,1.51.27.33.18.5.62.5,1.32,0,.83-.16,1.35-.48,1.57-.32.22-.83.32-1.53.32h-4.67c-.07,1.3-.25,2.47-.55,3.54-.3,1.06-.79,1.98-1.47,2.74-.68.76-1.6,1.36-2.77,1.79-1.16.43-2.61.65-4.33.65h-.9v-3.49h.55c2.04,0,3.44-.48,4.2-1.44.75-.96,1.13-2.51,1.13-4.63v-20.33Z"/>
          <path class="cls-2" d="M477.76,304.37c-.66,0-1.16-.12-1.49-.35-.33-.23-.5-.7-.5-1.4,0-.83.16-1.33.47-1.49.32-.17.82-.25,1.52-.25h7.42c.66,0,1.16.09,1.5.27.33.18.5.62.5,1.32,0,.83-.16,1.35-.47,1.57-.32.22-.82.32-1.52.32h-7.42Z"/>
          <path class="cls-2" d="M485.14,304.37c-.66,0-1.16-.12-1.49-.35-.33-.23-.5-.7-.5-1.4,0-.83.16-1.33.47-1.49.32-.17.82-.25,1.52-.25h7.42c.66,0,1.16.09,1.5.27.33.18.5.62.5,1.32,0,.83-.16,1.35-.47,1.57-.32.22-.82.32-1.52.32h-7.42Z"/>
          <path class="cls-2" d="M492.51,304.37c-.66,0-1.16-.12-1.49-.35-.33-.23-.5-.7-.5-1.4,0-.83.16-1.33.47-1.49.32-.17.82-.25,1.52-.25h3.49c1.36,0,2.24-.31,2.64-.92.4-.61.6-1.62.6-3.01v-13.75h4.19v15.99c0,.3.12.56.35.77.23.22.52.39.87.52.35.13.72.23,1.12.3.4.07.75.1,1.05.1h1.3c.66,0,1.16.09,1.5.27.33.18.5.62.5,1.32,0,.83-.16,1.35-.47,1.57-.32.22-.82.32-1.52.32h-.9c-.96,0-1.82-.16-2.57-.47-.75-.32-1.39-.87-1.92-1.67-.4.53-1.03,1.02-1.89,1.47-.86.45-2.16.67-3.89.67h-4.43ZM498.49,310.5c0-.73.26-1.35.77-1.87.51-.51,1.14-.77,1.87-.77s1.35.26,1.87.77c.51.51.77,1.14.77,1.87s-.26,1.35-.77,1.87c-.52.51-1.14.77-1.87.77s-1.35-.26-1.87-.77-.77-1.14-.77-1.87Z"/>
          <path class="cls-2" d="M508.11,304.37c-.66,0-1.16-.12-1.49-.35-.33-.23-.5-.7-.5-1.4,0-.83.16-1.33.47-1.49.32-.17.82-.25,1.52-.25h3.49c1.36,0,2.24-.31,2.64-.92.4-.61.6-1.62.6-3.01v-13.75h4.19v15.99c0,.3.12.56.35.77.23.22.52.39.87.52.35.13.72.23,1.12.3.4.07.75.1,1.05.1h1.3c.66,0,1.16.09,1.5.27.33.18.5.62.5,1.32,0,.83-.16,1.35-.47,1.57-.32.22-.82.32-1.52.32h-.9c-.96,0-1.82-.16-2.57-.47-.75-.32-1.39-.87-1.92-1.67-.4.53-1.03,1.02-1.89,1.47-.86.45-2.16.67-3.89.67h-4.43ZM511.2,276.56c0-.73.26-1.35.77-1.87.51-.51,1.14-.77,1.87-.77s1.35.26,1.87.77c.51.51.77,1.14.77,1.87s-.26,1.35-.77,1.87c-.52.52-1.14.77-1.87.77s-1.35-.26-1.87-.77c-.52-.51-.77-1.14-.77-1.87ZM517.67,276.56c0-.73.26-1.35.77-1.87.51-.51,1.14-.77,1.87-.77s1.35.26,1.87.77c.51.51.77,1.14.77,1.87s-.26,1.35-.77,1.87c-.52.52-1.14.77-1.87.77s-1.35-.26-1.87-.77c-.52-.51-.77-1.14-.77-1.87Z"/>
          <path class="cls-2" d="M523.7,304.37c-.66,0-1.16-.12-1.49-.35-.33-.23-.5-.7-.5-1.4,0-.83.16-1.33.47-1.49.32-.17.82-.25,1.52-.25h6.23v-32.54h4.19v36.02h-10.41Z"/>
          <path class="cls-2" d="M546.52,268.34v36.02h-4.19v-36.02h4.19Z"/>
          <path class="cls-2" d="M580.5,304.37h-18.29v-3.19h4.38c-.3-.9-.55-1.66-.75-2.29s-.35-1.19-.45-1.67c-.1-.48-.17-.9-.2-1.25-.03-.35-.05-.67-.05-.97,0-2.36.85-4.24,2.54-5.63,1.69-1.4,4.15-2.09,7.37-2.09.23,0,.52,0,.87.02.35.02.71.03,1.07.05.37.02.72.03,1.07.05.35.02.66.04.92.08v3.09c-.13,0-.32,0-.57-.02-.25-.02-.5-.03-.75-.05s-.49-.03-.72-.05c-.23-.02-.42-.03-.55-.03-1.1,0-2.1.07-3.01.2-.91.13-1.69.39-2.34.77-.65.38-1.15.91-1.52,1.57-.37.67-.55,1.51-.55,2.54,0,.47.1,1.12.3,1.97.2.85.65,2.08,1.35,3.71h9.87v3.19Z"/>
          <path class="cls-2" d="M591.92,268.34v36.02h-4.19v-36.02h4.19Z"/>
          <path class="cls-2" d="M603.03,283.19h4.19v17.69h4.62c.67,0,1.17.09,1.51.27.33.18.5.62.5,1.32,0,.83-.16,1.35-.48,1.57-.32.22-.83.32-1.53.32h-4.67c-.07,1.3-.25,2.47-.55,3.54-.3,1.06-.79,1.98-1.47,2.74-.68.76-1.6,1.36-2.77,1.79-1.16.43-2.61.65-4.33.65h-.9v-3.49h.55c2.04,0,3.44-.48,4.2-1.44.75-.96,1.13-2.51,1.13-4.63v-20.33Z"/>
          <path class="cls-2" d="M611.8,304.37c-.66,0-1.16-.12-1.49-.35-.33-.23-.5-.7-.5-1.4,0-.83.16-1.33.47-1.49.32-.17.82-.25,1.52-.25h7.42c.66,0,1.16.09,1.5.27.33.18.5.62.5,1.32,0,.83-.16,1.35-.47,1.57-.32.22-.82.32-1.52.32h-7.42Z"/>
          <path class="cls-2" d="M619.17,304.37c-.66,0-1.16-.12-1.49-.35-.33-.23-.5-.7-.5-1.4,0-.83.16-1.33.47-1.49.32-.17.82-.25,1.52-.25h7.42c.66,0,1.16.09,1.5.27.33.18.5.62.5,1.32,0,.83-.16,1.35-.47,1.57-.32.22-.82.32-1.52.32h-7.42Z"/>
          <path class="cls-2" d="M626.54,304.37c-.66,0-1.16-.12-1.49-.35-.33-.23-.5-.7-.5-1.4,0-.83.16-1.33.47-1.49.32-.17.82-.25,1.52-.25h7.42c.66,0,1.16.09,1.5.27.33.18.5.62.5,1.32,0,.83-.16,1.35-.47,1.57-.32.22-.82.32-1.52.32h-7.42Z"/>
          <path class="cls-2" d="M633.92,304.37c-.66,0-1.16-.12-1.49-.35-.33-.23-.5-.7-.5-1.4,0-.83.16-1.33.47-1.49.32-.17.82-.25,1.52-.25h7.42c.66,0,1.16.09,1.5.27.33.18.5.62.5,1.32,0,.83-.16,1.35-.47,1.57-.32.22-.82.32-1.52.32h-7.42Z"/>
          <path class="cls-2" d="M641.29,304.37c-.66,0-1.16-.12-1.49-.35-.33-.23-.5-.7-.5-1.4,0-.83.16-1.33.47-1.49.32-.17.82-.25,1.52-.25h7.42c.66,0,1.16.09,1.5.27.33.18.5.62.5,1.32,0,.83-.16,1.35-.47,1.57-.32.22-.82.32-1.52.32h-7.42Z"/>
          <path class="cls-2" d="M648.67,304.37c-.66,0-1.16-.12-1.49-.35-.33-.23-.5-.7-.5-1.4,0-.83.16-1.33.47-1.49.32-.17.82-.25,1.52-.25h7.42c.66,0,1.16.09,1.5.27.33.18.5.62.5,1.32,0,.83-.16,1.35-.47,1.57-.32.22-.82.32-1.52.32h-7.42Z"/>
          <path class="cls-2" d="M656.04,304.37c-.66,0-1.16-.12-1.49-.35-.33-.23-.5-.7-.5-1.4,0-.83.16-1.33.47-1.49.32-.17.82-.25,1.52-.25h7.42c.66,0,1.16.09,1.5.27.33.18.5.62.5,1.32,0,.83-.16,1.35-.47,1.57-.32.22-.82.32-1.52.32h-7.42Z"/>
          <path class="cls-2" d="M663.41,304.37c-.66,0-1.16-.12-1.49-.35-.33-.23-.5-.7-.5-1.4,0-.83.16-1.33.47-1.49.32-.17.82-.25,1.52-.25h7.42c.66,0,1.16.09,1.5.27.33.18.5.62.5,1.32,0,.83-.16,1.35-.47,1.57-.32.22-.82.32-1.52.32h-7.42Z"/>
          <path class="cls-2" d="M670.79,304.37c-.66,0-1.16-.12-1.49-.35-.33-.23-.5-.7-.5-1.4,0-.83.16-1.33.47-1.49.32-.17.82-.25,1.52-.25h7.42c.66,0,1.16.09,1.5.27.33.18.5.62.5,1.32,0,.83-.16,1.35-.47,1.57-.32.22-.82.32-1.52.32h-7.42Z"/>
          <path class="cls-2" d="M678.16,304.37c-.66,0-1.16-.12-1.49-.35-.33-.23-.5-.7-.5-1.4,0-.83.16-1.33.47-1.49.32-.17.82-.25,1.52-.25h7.42c.66,0,1.16.09,1.5.27.33.18.5.62.5,1.32,0,.83-.16,1.35-.47,1.57-.32.22-.82.32-1.52.32h-7.42Z"/>
          <path class="cls-2" d="M685.54,304.37c-.66,0-1.16-.12-1.49-.35-.33-.23-.5-.7-.5-1.4,0-.83.16-1.33.47-1.49.32-.17.82-.25,1.52-.25h7.42c.66,0,1.16.09,1.5.27.33.18.5.62.5,1.32,0,.83-.16,1.35-.47,1.57-.32.22-.82.32-1.52.32h-7.42Z"/>
          <path class="cls-2" d="M692.91,304.37c-.66,0-1.16-.12-1.49-.35-.33-.23-.5-.7-.5-1.4,0-.83.16-1.33.47-1.49.32-.17.82-.25,1.52-.25h7.42c.66,0,1.16.09,1.5.27.33.18.5.62.5,1.32,0,.83-.16,1.35-.47,1.57-.32.22-.82.32-1.52.32h-7.42Z"/>
          <path class="cls-2" d="M700.29,304.37c-.66,0-1.16-.12-1.49-.35-.33-.23-.5-.7-.5-1.4,0-.83.16-1.33.47-1.49.32-.17.82-.25,1.52-.25h7.42c.66,0,1.16.09,1.5.27.33.18.5.62.5,1.32,0,.83-.16,1.35-.47,1.57-.32.22-.82.32-1.52.32h-7.42Z"/>
          <path class="cls-2" d="M707.66,304.37c-.66,0-1.16-.12-1.49-.35-.33-.23-.5-.7-.5-1.4,0-.83.16-1.33.47-1.49.32-.17.82-.25,1.52-.25h7.42c.66,0,1.16.09,1.5.27.33.18.5.62.5,1.32,0,.83-.16,1.35-.47,1.57-.32.22-.82.32-1.52.32h-7.42Z"/>
          <path class="cls-2" d="M715.03,304.37c-.66,0-1.16-.12-1.49-.35-.33-.23-.5-.7-.5-1.4,0-.83.16-1.33.47-1.49.32-.17.82-.25,1.52-.25h7.42c.66,0,1.16.09,1.5.27.33.18.5.62.5,1.32,0,.83-.16,1.35-.47,1.57-.32.22-.82.32-1.52.32h-7.42Z"/>
          <path class="cls-2" d="M722.41,304.37c-.66,0-1.16-.12-1.49-.35-.33-.23-.5-.7-.5-1.4,0-.83.16-1.33.47-1.49.32-.17.82-.25,1.52-.25h3.49c1.36,0,2.24-.31,2.64-.92.4-.61.6-1.62.6-3.01v-13.75h4.19v15.99c0,.3.12.56.35.77.23.22.52.39.87.52.35.13.72.23,1.12.3.4.07.75.1,1.05.1h1.3c.66,0,1.16.09,1.5.27.33.18.5.62.5,1.32,0,.83-.16,1.35-.47,1.57-.32.22-.82.32-1.52.32h-.9c-.96,0-1.82-.16-2.57-.47-.75-.32-1.39-.87-1.92-1.67-.4.53-1.03,1.02-1.89,1.47-.86.45-2.16.67-3.89.67h-4.43ZM728.39,310.5c0-.73.26-1.35.77-1.87.51-.51,1.14-.77,1.87-.77s1.35.26,1.87.77c.51.51.77,1.14.77,1.87s-.26,1.35-.77,1.87c-.52.51-1.14.77-1.87.77s-1.35-.26-1.87-.77-.77-1.14-.77-1.87Z"/>
          <path class="cls-2" d="M746.27,286.13c-1.3,0-2.41.11-3.34.32-.93.22-1.66.41-2.19.57v-3.14c.6-.27,1.42-.52,2.47-.77,1.05-.25,2.27-.37,3.66-.37,2.16,0,3.88.34,5.16,1.02,1.28.68,2.27,1.56,2.99,2.64.71,1.08,1.2,2.29,1.47,3.64.27,1.35.49,2.69.67,4.04s.39,2.62.62,3.81c.23,1.2.66,2.19,1.3,2.99v3.49h-21.08c-1.33,0-1.99-.58-1.99-1.74,0-.73.16-1.2.47-1.42.32-.22.82-.32,1.52-.32h16.54c-.53-.83-.91-1.78-1.12-2.84-.22-1.06-.39-2.14-.52-3.24-.13-1.1-.28-2.16-.45-3.19-.17-1.03-.47-1.95-.92-2.77-.45-.81-1.08-1.47-1.89-1.97-.81-.5-1.94-.75-3.36-.75ZM744.38,276.56c0-.73.26-1.35.77-1.87.51-.51,1.14-.77,1.87-.77s1.35.26,1.87.77c.51.51.77,1.14.77,1.87s-.26,1.35-.77,1.87c-.52.52-1.14.77-1.87.77s-1.35-.26-1.87-.77c-.52-.51-.77-1.14-.77-1.87Z"/>
        </g>
        <g>
          <path class="cls-2" d="M452.23,136.03c-2.08-3.63-6.75-5.93-11.64-5.93-10.68-.07-19.06,6.53-19.06,19.13s8.01,19.5,18.83,19.43c4.08-.07,9.79-2.15,11.86-6.45l.45,5.34h8.53v-36.55h-8.68l-.3,5.04ZM441.4,160.35c-6.01,0-10.83-4.15-10.83-11.12s4.82-11.05,10.83-11.05c14.24,0,14.24,22.17,0,22.17Z"/>
          <rect class="cls-2" x="468.83" y="115.72" width="8.97" height="51.83"/>
          <path class="cls-2" d="M520.51,136.03c-2.08-3.63-6.75-5.93-11.64-5.93-10.68-.07-19.06,6.53-19.06,19.13s8.01,19.5,18.83,19.43c4.08-.07,9.79-2.15,11.86-6.45l.45,5.34h8.53v-36.55h-8.68l-.3,5.04ZM509.68,160.35c-6.01,0-10.83-4.15-10.83-11.12s4.82-11.05,10.83-11.05c14.24,0,14.24,22.17,0,22.17Z"/>
          <polygon class="cls-2" points="577.23 158.43 569.22 130.92 561.29 130.92 553.35 158.43 544.97 130.92 534.89 130.92 547.72 167.69 558.25 167.69 562.03 156.87 565.29 144.63 568.55 156.87 572.33 167.69 582.86 167.69 595.62 130.92 585.61 130.92 577.23 158.43"/>
          <path class="cls-2" d="M627.49,136.03c-2.08-3.63-6.75-5.93-11.64-5.93-10.68-.07-19.06,6.53-19.06,19.13s8.01,19.5,18.83,19.43c4.08-.07,9.79-2.15,11.86-6.45l.45,5.34h8.53v-36.55h-8.68l-.3,5.04ZM616.66,160.35c-6.01,0-10.83-4.15-10.83-11.12s4.82-11.05,10.83-11.05c14.24,0,14.24,22.17,0,22.17Z"/>
          <path class="cls-2" d="M673.01,135.96c-2.15-3.78-8.16-5.86-12.01-5.86-10.68,0-18.61,6.53-18.61,19.13s8.08,19.13,18.83,19.13c4.45,0,8.97-1.48,11.79-5.86l.59,5.04h8.45v-51.83h-9.05v20.24ZM661.81,159.98c-5.78,0-10.38-4.38-10.38-10.75s4.6-10.68,10.38-10.68,10.6,4.3,10.6,10.68-4.89,10.75-10.6,10.75Z"/>
          <text class="cls-1" transform="translate(693.45 162.47)"><tspan x="0" y="0">air conditioning</tspan></text>
        </g>
      </g>
    </g>
  </g>
</svg>